<svg width="581" height="273" viewBox="0 0 581 273" fill="none" xmlns="http://www.w3.org/2000/svg">
<path d="M577.946 199.584C577.921 200.795 577.896 202.006 577.822 203.192C577.772 204.378 577.723 205.541 577.623 206.727C577.276 211.82 576.658 216.762 575.84 221.483C575.592 222.892 575.344 224.276 575.073 225.635C575.024 225.957 574.949 226.279 574.9 226.574L574.85 226.747C574.677 227.586 574.503 228.403 574.329 229.243C574.007 230.701 573.662 232.159 573.315 233.568C573.24 233.84 573.166 234.088 573.116 234.36C572.176 238.067 571.16 241.552 570.095 244.815C569.922 245.358 569.748 245.902 569.575 246.447C569.103 247.88 568.634 249.24 568.163 250.574C567.816 251.537 567.469 252.453 567.149 253.342C565.34 258.138 563.582 262.117 562.17 265.132C560.858 267.925 559.744 270.274 559.174 271.46C558.926 271.98 558.777 272.277 558.777 272.277C558.777 272.277 284.238 272.327 132.691 272.351C74.919 272.351 35.0283 272.351 35.0283 272.351C35.0283 272.327 35.0035 272.327 35.0035 272.327C34.6564 272.054 34.334 271.807 34.0137 271.536C33.9889 271.536 33.9889 271.536 33.9889 271.536C33.8401 271.413 33.6913 271.314 33.5673 271.19L26.3616 263.404C24.7767 261.153 23.4893 258.757 22.4995 256.261C20.5921 251.614 19.6767 246.573 19.6767 241.307C19.6767 241.061 19.6767 240.787 19.7015 240.517C19.7015 240.047 19.7263 239.554 19.7263 239.083C19.7511 238.663 19.7759 238.244 19.8007 237.823C19.9247 236.291 20.0983 234.758 20.3462 233.226C20.3462 233.174 20.371 233.127 20.371 233.077C20.4206 232.83 20.4702 232.557 20.495 232.285C20.5446 231.963 20.619 231.644 20.6934 231.322C20.9166 230.185 21.1893 229.049 21.4848 227.888C21.5344 227.615 21.6088 227.343 21.6832 227.071C21.7824 226.749 21.8568 226.429 21.9808 226.107C22.2536 225.095 22.6007 224.082 22.9458 223.042C23.6153 221.064 24.4068 219.088 25.2974 217.086C25.347 216.937 25.4214 216.764 25.4958 216.615C26.3121 214.811 27.2048 213.031 28.1698 211.226C29.6308 208.507 31.2901 205.813 33.0983 203.144C33.495 202.575 33.8897 202.008 34.2865 201.463C36.293 198.621 38.4958 195.828 40.897 193.085C43.7942 189.748 46.9641 186.46 50.382 183.298C51.1487 182.58 51.9174 181.889 52.684 181.196C52.8576 181.048 53.0312 180.899 53.2048 180.726C53.6511 180.355 54.0954 179.959 54.5418 179.589C56.4243 177.958 58.2552 176.425 60.0633 174.942C60.9788 174.2 61.8715 173.484 62.7621 172.766C64.5206 171.358 66.2296 169.974 67.8621 168.639C72.8897 164.512 77.3471 160.632 80.8621 156.257C82.0751 154.774 83.1641 153.217 84.1312 151.61C85.8898 148.669 87.2515 145.482 88.1422 141.873C88.3406 140.959 88.5389 140.018 88.6877 139.055C89.1341 136.436 89.3573 133.593 89.2829 130.479C89.2581 128.032 89.0597 125.386 88.6877 122.569C88.6133 121.977 88.5141 121.358 88.415 120.714C87.8942 117.231 87.1028 113.448 86.0385 109.32C85.741 108.159 85.4186 106.973 85.0735 105.762C84.4784 103.661 84.0093 101.586 83.6373 99.5602C82.9203 95.6288 82.6227 91.8481 82.6723 88.1642C82.6971 84.829 83.0195 81.5907 83.6373 78.4762V78.4267C84.1829 75.4606 84.9743 72.5936 85.9394 69.8256C97.8049 36.1596 138.167 16.2637 148.89 11.8146C164.169 5.46179 182.269 1.90379 201.063 0.594032C202.599 0.495027 204.134 0.396021 205.669 0.321767C210.003 0.0990053 214.386 0 218.744 0C220.527 0 222.286 0.0247513 224.042 0.0495027C226.989 0.123757 229.911 0.222762 232.857 0.396021C235.581 0.544529 238.28 0.717789 240.979 0.94055C252.17 1.8811 263.092 3.46106 273.244 5.58761C282.481 7.51409 290.801 9.93766 298.378 12.7304C298.378 12.7304 298.378 12.7304 298.403 12.7552C316.282 19.3535 329.801 27.9793 340.598 36.9517C343.098 39.0267 345.477 41.1285 347.704 43.2303C348.002 43.5025 348.324 43.7995 348.62 44.0945C349.312 44.738 349.982 45.3795 350.651 46.0478C350.949 46.3448 351.271 46.6418 351.567 46.9368C353.523 48.888 355.404 50.8413 357.187 52.7451C358.078 53.7083 358.971 54.6736 359.836 55.6121C364.542 60.8037 368.702 65.6467 372.663 69.8235C373.159 70.368 373.653 70.861 374.149 71.3808C380.958 78.3029 387.273 82.9974 394.999 83.5172C399.853 83.8389 405.523 83.0221 411.886 81.7866C412.531 81.6629 413.149 81.5412 413.793 81.3927C423.574 79.4394 434.966 76.6714 447.619 75.5101C463.963 74.0023 482.459 75.1883 502.417 84.235C503.062 84.532 503.68 84.829 504.324 85.1239C507.246 86.5327 510.193 88.09 513.165 89.8453C513.785 90.1918 514.402 90.563 515.022 90.9323C518.044 92.7865 521.114 94.8368 524.21 97.1118C524.284 97.1613 524.359 97.2108 524.433 97.2851C525.77 98.2483 527.107 99.2858 528.444 100.35C530.004 101.586 531.589 102.871 533.174 104.23C536.987 107.518 540.876 111.125 544.763 115.131C547.586 118.023 550.21 120.939 552.588 123.905C554.248 125.933 555.808 127.985 557.244 130.035C557.517 130.406 557.765 130.776 558.036 131.147C560.511 134.781 562.741 138.438 564.72 142.12C564.944 142.566 565.192 143.034 565.44 143.479C568.039 148.572 570.194 153.687 571.903 158.778C572.052 159.221 572.201 159.642 572.35 160.063C573.092 162.36 573.736 164.66 574.332 166.958C575.123 170.097 575.768 173.212 576.288 176.324C577.625 184.261 578.094 192.07 577.946 199.584Z" fill="#EDF4FF"/>
<path d="M123.458 78.4741V247.212H88.6919V139.055C89.1382 136.436 89.3614 133.593 89.287 130.479C89.2622 128.032 89.0638 125.386 88.6919 122.569V78.4741H123.458Z" fill="#C4D9ED"/>
<path d="M115.634 78.4741V247.212H80.8662V156.257C82.0792 154.774 83.1682 153.217 84.1353 151.61C85.8938 148.669 87.2556 145.482 88.1463 141.873C88.3446 140.959 88.543 140.018 88.6918 139.055C89.1382 136.436 89.3613 133.593 89.2869 130.479C89.2621 128.032 89.0638 125.386 88.6918 122.569C88.6174 121.977 88.5182 121.358 88.419 120.714C87.8983 117.231 87.1068 113.448 86.0426 109.32C85.7451 108.159 85.4227 106.973 85.0776 105.762C84.4825 103.661 84.0134 101.586 83.6414 99.5602C82.9244 95.6289 82.6268 91.8481 82.6764 88.1643C82.7012 84.829 83.0236 81.5907 83.6414 78.4762H115.634V78.4741Z" fill="#D5E7F7"/>
<path d="M83.6394 78.4741C83.0195 81.5887 82.6992 84.827 82.6744 88.1622H88.6919H115.634V78.4741V78.4246H83.6394V78.4741Z" fill="#C4D9ED"/>
<path d="M115.634 99.5581V109.32H86.0427C85.7451 108.159 85.4227 106.973 85.0776 105.762C84.4825 103.661 84.0134 101.586 83.6414 99.5602H115.634V99.5581Z" fill="#C4D9ED"/>
<path d="M115.634 120.714V130.479H89.287C89.2622 128.032 89.0638 125.386 88.6918 122.569C88.6174 121.977 88.5183 121.358 88.4191 120.714H115.634Z" fill="#C4D9ED"/>
<path d="M115.634 141.873V151.61H84.1353C85.8939 148.669 87.2557 145.482 88.1463 141.873H115.634Z" fill="#C4D9ED"/>
<path d="M115.634 163.014H80.8786V172.764H115.634V163.014Z" fill="#C4D9ED"/>
<path d="M115.634 184.162H80.8786V193.912H115.634V184.162Z" fill="#C4D9ED"/>
<path d="M115.634 205.31H80.8786V215.06H115.634V205.31Z" fill="#C4D9ED"/>
<path d="M115.634 226.458H80.8786V236.208H115.634V226.458Z" fill="#C4D9ED"/>
<path d="M67.8663 168.639V247.212H33.1004V203.145C33.4971 202.575 33.8918 202.008 34.2886 201.464C36.2951 198.621 38.4979 195.828 40.8991 193.085C43.7963 189.748 46.9662 186.46 50.3841 183.298C51.1508 182.58 51.9195 181.889 52.6861 181.196C52.8597 181.048 53.0333 180.899 53.2069 180.726C53.6532 180.355 54.0975 179.959 54.5439 179.59C56.4264 177.958 58.2573 176.425 60.0654 174.942C60.9809 174.2 61.8736 173.484 62.7642 172.766C64.5228 171.36 66.2317 169.976 67.8663 168.639Z" fill="#C4D9ED"/>
<path d="M60.0675 174.942V247.212H25.2996V217.084C25.3492 216.935 25.4235 216.762 25.4979 216.613C26.3142 214.809 27.2069 213.029 28.1719 211.224C29.6329 208.505 31.2923 205.811 33.1004 203.142C33.4972 202.573 33.8918 202.006 34.2886 201.461C36.2951 198.619 38.498 195.826 40.8992 193.083C43.7963 189.746 46.9662 186.458 50.3842 183.296C51.1508 182.578 51.9195 181.887 52.6862 181.194C52.8598 181.046 53.0333 180.897 53.2069 180.724C53.6533 180.353 54.0976 179.957 54.5439 179.587C56.4264 177.958 58.2594 176.425 60.0675 174.942Z" fill="#D5E7F7"/>
<path d="M60.0675 174.942V183.296H50.3862C51.1529 182.578 51.9216 181.887 52.6882 181.194C52.8618 181.046 53.0354 180.897 53.209 180.724C53.6553 180.353 54.0996 179.957 54.5459 179.587C56.4264 177.958 58.2593 176.425 60.0675 174.942Z" fill="#C4D9ED"/>
<path d="M60.0675 193.085V201.463H34.2886C36.2951 198.621 38.4979 195.828 40.8991 193.085H60.0675Z" fill="#C4D9ED"/>
<path d="M60.0675 211.226V219.604H25.2996V217.084C25.3492 216.935 25.4235 216.762 25.4979 216.613C26.3142 214.809 27.2069 213.029 28.1719 211.224H60.0675V211.226Z" fill="#C4D9ED"/>
<path d="M60.0592 229.395H25.3036V237.765H60.0592V229.395Z" fill="#C4D9ED"/>
<path d="M142.264 242.033H127.706V263.222H142.264V242.033Z" fill="#DCEAF9"/>
<path d="M341.902 157.812V144.725H337.922V122.224H316.582V144.725H296.632V108.06H274.616V131.861H269.595V103.444H247.579V156.723H219.735V187.793H209.333V195.62H185.437V182.143H171.715V145.519H154.769V213.126H137.82V271.953H154.769H169.296H171.715H185.437H193.192H205.611H209.333H219.735H229.508H247.579H253.113H264.123H269.595H274.616H286.139H293.985H296.632H316.582H337.566H337.922H341.902H358.904V157.812H341.902Z" fill="#D5E7F7"/>
<path d="M269.595 107.041H247.566V112.47H269.595V107.041Z" fill="#C4D9ED"/>
<path d="M269.595 117.239H247.566V122.668H269.595V117.239Z" fill="#C4D9ED"/>
<path d="M269.595 126.415H247.566V131.844H269.595V126.415Z" fill="#C4D9ED"/>
<path d="M296.626 126.415H274.598V131.844H296.626V126.415Z" fill="#C4D9ED"/>
<path d="M296.626 117.239H274.598V122.668H296.626V117.239Z" fill="#C4D9ED"/>
<path d="M296.626 108.079H274.598V113.508H296.626V108.079Z" fill="#C4D9ED"/>
<path d="M296.63 135.311H247.566V140.74H296.63V135.311Z" fill="#C4D9ED"/>
<path d="M296.63 144.207H247.566V149.636H296.63V144.207Z" fill="#C4D9ED"/>
<path d="M171.873 145.523H154.775V153.904H171.873V145.523Z" fill="#C4D9ED"/>
<path d="M171.873 157.984H154.775V166.364H171.873V157.984Z" fill="#C4D9ED"/>
<path d="M171.873 170.446H154.775V178.826H171.873V170.446Z" fill="#C4D9ED"/>
<path d="M171.873 183.508H154.775V191.889H171.873V183.508Z" fill="#C4D9ED"/>
<path d="M171.873 196.167H154.775V204.547H171.873V196.167Z" fill="#C4D9ED"/>
<path d="M171.873 208.825H154.775V217.205H171.873V208.825Z" fill="#C4D9ED"/>
<path d="M171.873 222.069H154.775V230.449H171.873V222.069Z" fill="#C4D9ED"/>
<path d="M296.63 152.901H247.566V156.348H296.63V152.901Z" fill="#C4D9ED"/>
<path d="M177.94 145.523H171.635V182.143H177.94V145.523Z" fill="#C4D9ED"/>
<path d="M198.116 182.143H185.437V195.62H198.116V182.143Z" fill="#C4D9ED"/>
<path d="M296.626 108.079H301.001V144.725H296.632L296.626 108.079Z" fill="#C4D9ED"/>
<path d="M272.281 103.444H269.595V131.842H272.281V103.444Z" fill="#C4D9ED"/>
<g opacity="0.8">
<g opacity="0.8">
<g opacity="0.8">
<g opacity="0.8">
<path opacity="0.8" d="M228.018 162.07H224.286V167.321H228.018V162.07Z" fill="#C4D9ED"/>
<path opacity="0.8" d="M234.996 162.07H231.264V167.321H234.996V162.07Z" fill="#C4D9ED"/>
<path opacity="0.8" d="M241.82 162.07H238.088V167.321H241.82V162.07Z" fill="#C4D9ED"/>
<path opacity="0.8" d="M248.29 162.07H244.558V167.321H248.29V162.07Z" fill="#C4D9ED"/>
<path opacity="0.8" d="M254.882 162.07H251.15V167.321H254.882V162.07Z" fill="#C4D9ED"/>
</g>
<g opacity="0.8">
<path opacity="0.8" d="M261.552 162.07H257.82V167.321H261.552V162.07Z" fill="#C4D9ED"/>
<path opacity="0.8" d="M268.531 162.07H264.799V167.321H268.531V162.07Z" fill="#C4D9ED"/>
<path opacity="0.8" d="M275.354 162.07H271.622V167.321H275.354V162.07Z" fill="#C4D9ED"/>
<path opacity="0.8" d="M281.822 162.07H278.09V167.321H281.822V162.07Z" fill="#C4D9ED"/>
<path opacity="0.8" d="M288.416 162.07H284.684V167.321H288.416V162.07Z" fill="#C4D9ED"/>
</g>
</g>
<g opacity="0.8">
<g opacity="0.8">
<path opacity="0.8" d="M295.287 162.07H291.555V167.321H295.287V162.07Z" fill="#C4D9ED"/>
<path opacity="0.8" d="M302.267 162.07H298.535V167.321H302.267V162.07Z" fill="#C4D9ED"/>
<path opacity="0.8" d="M309.089 162.07H305.357V167.321H309.089V162.07Z" fill="#C4D9ED"/>
<path opacity="0.8" d="M315.559 162.07H311.827V167.321H315.559V162.07Z" fill="#C4D9ED"/>
<path opacity="0.8" d="M322.153 162.07H318.421V167.321H322.153V162.07Z" fill="#C4D9ED"/>
</g>
<g opacity="0.8">
<path opacity="0.8" d="M328.821 162.07H325.089V167.321H328.821V162.07Z" fill="#C4D9ED"/>
<path opacity="0.8" d="M335.799 162.07H332.068V167.321H335.799V162.07Z" fill="#C4D9ED"/>
<path opacity="0.8" d="M342.623 162.07H338.891V167.321H342.623V162.07Z" fill="#C4D9ED"/>
<path opacity="0.8" d="M349.093 162.07H345.361V167.321H349.093V162.07Z" fill="#C4D9ED"/>
<path opacity="0.8" d="M355.687 162.07H351.955V167.321H355.687V162.07Z" fill="#C4D9ED"/>
</g>
</g>
</g>
<g opacity="0.8">
<g opacity="0.8">
<g opacity="0.8">
<path opacity="0.8" d="M228.018 171.335H224.286V176.586H228.018V171.335Z" fill="#C4D9ED"/>
<path opacity="0.8" d="M234.996 171.335H231.264V176.586H234.996V171.335Z" fill="#C4D9ED"/>
<path opacity="0.8" d="M241.82 171.335H238.088V176.586H241.82V171.335Z" fill="#C4D9ED"/>
<path opacity="0.8" d="M248.29 171.335H244.558V176.586H248.29V171.335Z" fill="#C4D9ED"/>
<path opacity="0.8" d="M254.882 171.335H251.15V176.586H254.882V171.335Z" fill="#C4D9ED"/>
</g>
<g opacity="0.8">
<path opacity="0.8" d="M261.552 171.335H257.82V176.586H261.552V171.335Z" fill="#C4D9ED"/>
<path opacity="0.8" d="M268.531 171.335H264.799V176.586H268.531V171.335Z" fill="#C4D9ED"/>
<path opacity="0.8" d="M275.354 171.335H271.622V176.586H275.354V171.335Z" fill="#C4D9ED"/>
<path opacity="0.8" d="M281.822 171.335H278.09V176.586H281.822V171.335Z" fill="#C4D9ED"/>
<path opacity="0.8" d="M288.416 171.335H284.684V176.586H288.416V171.335Z" fill="#C4D9ED"/>
</g>
</g>
<g opacity="0.8">
<g opacity="0.8">
<path opacity="0.8" d="M295.287 171.335H291.555V176.586H295.287V171.335Z" fill="#C4D9ED"/>
<path opacity="0.8" d="M302.267 171.335H298.535V176.586H302.267V171.335Z" fill="#C4D9ED"/>
<path opacity="0.8" d="M309.089 171.335H305.357V176.586H309.089V171.335Z" fill="#C4D9ED"/>
<path opacity="0.8" d="M315.559 171.335H311.827V176.586H315.559V171.335Z" fill="#C4D9ED"/>
<path opacity="0.8" d="M322.153 171.335H318.421V176.586H322.153V171.335Z" fill="#C4D9ED"/>
</g>
<g opacity="0.8">
<path opacity="0.8" d="M328.821 171.335H325.089V176.586H328.821V171.335Z" fill="#C4D9ED"/>
<path opacity="0.8" d="M335.799 171.335H332.068V176.586H335.799V171.335Z" fill="#C4D9ED"/>
<path opacity="0.8" d="M342.623 171.335H338.891V176.586H342.623V171.335Z" fill="#C4D9ED"/>
<path opacity="0.8" d="M349.093 171.335H345.361V176.586H349.093V171.335Z" fill="#C4D9ED"/>
<path opacity="0.8" d="M355.687 171.335H351.955V176.586H355.687V171.335Z" fill="#C4D9ED"/>
</g>
</g>
</g>
<g opacity="0.8">
<g opacity="0.8">
<g opacity="0.8">
<path opacity="0.8" d="M228.018 180.46H224.286V185.711H228.018V180.46Z" fill="#C4D9ED"/>
<path opacity="0.8" d="M234.996 180.46H231.264V185.711H234.996V180.46Z" fill="#C4D9ED"/>
<path opacity="0.8" d="M241.82 180.46H238.088V185.711H241.82V180.46Z" fill="#C4D9ED"/>
<path opacity="0.8" d="M248.29 180.46H244.558V185.711H248.29V180.46Z" fill="#C4D9ED"/>
<path opacity="0.8" d="M254.882 180.46H251.15V185.711H254.882V180.46Z" fill="#C4D9ED"/>
</g>
<g opacity="0.8">
<path opacity="0.8" d="M261.552 180.46H257.82V185.711H261.552V180.46Z" fill="#C4D9ED"/>
<path opacity="0.8" d="M268.531 180.46H264.799V185.711H268.531V180.46Z" fill="#C4D9ED"/>
<path opacity="0.8" d="M275.354 180.46H271.622V185.711H275.354V180.46Z" fill="#C4D9ED"/>
<path opacity="0.8" d="M281.822 180.46H278.09V185.711H281.822V180.46Z" fill="#C4D9ED"/>
<path opacity="0.8" d="M288.416 180.46H284.684V185.711H288.416V180.46Z" fill="#C4D9ED"/>
</g>
</g>
<g opacity="0.8">
<g opacity="0.8">
<path opacity="0.8" d="M295.287 180.46H291.555V185.711H295.287V180.46Z" fill="#C4D9ED"/>
<path opacity="0.8" d="M302.267 180.46H298.535V185.711H302.267V180.46Z" fill="#C4D9ED"/>
<path opacity="0.8" d="M309.089 180.46H305.357V185.711H309.089V180.46Z" fill="#C4D9ED"/>
<path opacity="0.8" d="M315.559 180.46H311.827V185.711H315.559V180.46Z" fill="#C4D9ED"/>
<path opacity="0.8" d="M322.153 180.46H318.421V185.711H322.153V180.46Z" fill="#C4D9ED"/>
</g>
<g opacity="0.8">
<path opacity="0.8" d="M328.821 180.46H325.089V185.711H328.821V180.46Z" fill="#C4D9ED"/>
<path opacity="0.8" d="M335.799 180.46H332.068V185.711H335.799V180.46Z" fill="#C4D9ED"/>
<path opacity="0.8" d="M342.623 180.46H338.891V185.711H342.623V180.46Z" fill="#C4D9ED"/>
<path opacity="0.8" d="M349.093 180.46H345.361V185.711H349.093V180.46Z" fill="#C4D9ED"/>
<path opacity="0.8" d="M355.687 180.46H351.955V185.711H355.687V180.46Z" fill="#C4D9ED"/>
</g>
</g>
</g>
<g opacity="0.8">
<g opacity="0.8">
<g opacity="0.8">
<g opacity="0.8">
<path opacity="0.8" d="M228.018 190.154H224.286V195.406H228.018V190.154Z" fill="#C4D9ED"/>
<path opacity="0.8" d="M234.996 190.154H231.264V195.406H234.996V190.154Z" fill="#C4D9ED"/>
<path opacity="0.8" d="M241.82 190.154H238.088V195.406H241.82V190.154Z" fill="#C4D9ED"/>
<path opacity="0.8" d="M248.29 190.154H244.558V195.406H248.29V190.154Z" fill="#C4D9ED"/>
<path opacity="0.8" d="M254.882 190.154H251.15V195.406H254.882V190.154Z" fill="#C4D9ED"/>
</g>
<g opacity="0.8">
<path opacity="0.8" d="M261.552 190.154H257.82V195.406H261.552V190.154Z" fill="#C4D9ED"/>
<path opacity="0.8" d="M268.531 190.154H264.799V195.406H268.531V190.154Z" fill="#C4D9ED"/>
<path opacity="0.8" d="M275.354 190.154H271.622V195.406H275.354V190.154Z" fill="#C4D9ED"/>
<path opacity="0.8" d="M281.822 190.154H278.09V195.406H281.822V190.154Z" fill="#C4D9ED"/>
<path opacity="0.8" d="M288.416 190.154H284.684V195.406H288.416V190.154Z" fill="#C4D9ED"/>
</g>
</g>
<g opacity="0.8">
<g opacity="0.8">
<path opacity="0.8" d="M295.287 190.154H291.555V195.406H295.287V190.154Z" fill="#C4D9ED"/>
<path opacity="0.8" d="M302.267 190.154H298.535V195.406H302.267V190.154Z" fill="#C4D9ED"/>
<path opacity="0.8" d="M309.089 190.154H305.357V195.406H309.089V190.154Z" fill="#C4D9ED"/>
<path opacity="0.8" d="M315.559 190.154H311.827V195.406H315.559V190.154Z" fill="#C4D9ED"/>
<path opacity="0.8" d="M322.153 190.154H318.421V195.406H322.153V190.154Z" fill="#C4D9ED"/>
</g>
<g opacity="0.8">
<path opacity="0.8" d="M328.821 190.154H325.089V195.406H328.821V190.154Z" fill="#C4D9ED"/>
<path opacity="0.8" d="M335.799 190.154H332.068V195.406H335.799V190.154Z" fill="#C4D9ED"/>
<path opacity="0.8" d="M342.623 190.154H338.891V195.406H342.623V190.154Z" fill="#C4D9ED"/>
<path opacity="0.8" d="M349.093 190.154H345.361V195.406H349.093V190.154Z" fill="#C4D9ED"/>
<path opacity="0.8" d="M355.687 190.154H351.955V195.406H355.687V190.154Z" fill="#C4D9ED"/>
</g>
</g>
</g>
<g opacity="0.8">
<g opacity="0.8">
<g opacity="0.8">
<path opacity="0.8" d="M228.018 199.419H224.286V204.671H228.018V199.419Z" fill="#C4D9ED"/>
<path opacity="0.8" d="M234.996 199.419H231.264V204.671H234.996V199.419Z" fill="#C4D9ED"/>
<path opacity="0.8" d="M241.82 199.419H238.088V204.671H241.82V199.419Z" fill="#C4D9ED"/>
<path opacity="0.8" d="M248.29 199.419H244.558V204.671H248.29V199.419Z" fill="#C4D9ED"/>
<path opacity="0.8" d="M254.882 199.419H251.15V204.671H254.882V199.419Z" fill="#C4D9ED"/>
</g>
<g opacity="0.8">
<path opacity="0.8" d="M261.552 199.419H257.82V204.671H261.552V199.419Z" fill="#C4D9ED"/>
<path opacity="0.8" d="M268.531 199.419H264.799V204.671H268.531V199.419Z" fill="#C4D9ED"/>
<path opacity="0.8" d="M275.354 199.419H271.622V204.671H275.354V199.419Z" fill="#C4D9ED"/>
<path opacity="0.8" d="M281.822 199.419H278.09V204.671H281.822V199.419Z" fill="#C4D9ED"/>
<path opacity="0.8" d="M288.416 199.419H284.684V204.671H288.416V199.419Z" fill="#C4D9ED"/>
</g>
</g>
<g opacity="0.8">
<g opacity="0.8">
<path opacity="0.8" d="M295.287 199.419H291.555V204.671H295.287V199.419Z" fill="#C4D9ED"/>
<path opacity="0.8" d="M302.267 199.419H298.535V204.671H302.267V199.419Z" fill="#C4D9ED"/>
<path opacity="0.8" d="M309.089 199.419H305.357V204.671H309.089V199.419Z" fill="#C4D9ED"/>
<path opacity="0.8" d="M315.559 199.419H311.827V204.671H315.559V199.419Z" fill="#C4D9ED"/>
<path opacity="0.8" d="M322.153 199.419H318.421V204.671H322.153V199.419Z" fill="#C4D9ED"/>
</g>
<g opacity="0.8">
<path opacity="0.8" d="M328.821 199.419H325.089V204.671H328.821V199.419Z" fill="#C4D9ED"/>
<path opacity="0.8" d="M335.8 199.419H332.068V204.671H335.8V199.419Z" fill="#C4D9ED"/>
<path opacity="0.8" d="M342.623 199.419H338.891V204.671H342.623V199.419Z" fill="#C4D9ED"/>
<path opacity="0.8" d="M349.093 199.419H345.361V204.671H349.093V199.419Z" fill="#C4D9ED"/>
<path opacity="0.8" d="M355.687 199.419H351.955V204.671H355.687V199.419Z" fill="#C4D9ED"/>
</g>
</g>
</g>
<g opacity="0.8">
<g opacity="0.8">
<g opacity="0.8">
<path opacity="0.8" d="M228.018 208.542H224.286V213.794H228.018V208.542Z" fill="#C4D9ED"/>
<path opacity="0.8" d="M234.996 208.542H231.264V213.794H234.996V208.542Z" fill="#C4D9ED"/>
<path opacity="0.8" d="M241.82 208.542H238.088V213.794H241.82V208.542Z" fill="#C4D9ED"/>
<path opacity="0.8" d="M248.29 208.542H244.558V213.794H248.29V208.542Z" fill="#C4D9ED"/>
<path opacity="0.8" d="M254.882 208.542H251.15V213.794H254.882V208.542Z" fill="#C4D9ED"/>
</g>
<g opacity="0.8">
<path opacity="0.8" d="M261.552 208.542H257.82V213.794H261.552V208.542Z" fill="#C4D9ED"/>
<path opacity="0.8" d="M268.531 208.542H264.799V213.794H268.531V208.542Z" fill="#C4D9ED"/>
<path opacity="0.8" d="M275.354 208.542H271.622V213.794H275.354V208.542Z" fill="#C4D9ED"/>
<path opacity="0.8" d="M281.822 208.542H278.09V213.794H281.822V208.542Z" fill="#C4D9ED"/>
<path opacity="0.8" d="M288.416 208.542H284.684V213.794H288.416V208.542Z" fill="#C4D9ED"/>
</g>
</g>
<g opacity="0.8">
<g opacity="0.8">
<path opacity="0.8" d="M295.287 208.542H291.555V213.794H295.287V208.542Z" fill="#C4D9ED"/>
<path opacity="0.8" d="M302.267 208.542H298.535V213.794H302.267V208.542Z" fill="#C4D9ED"/>
<path opacity="0.8" d="M309.089 208.542H305.357V213.794H309.089V208.542Z" fill="#C4D9ED"/>
<path opacity="0.8" d="M315.559 208.542H311.827V213.794H315.559V208.542Z" fill="#C4D9ED"/>
<path opacity="0.8" d="M322.153 208.542H318.421V213.794H322.153V208.542Z" fill="#C4D9ED"/>
</g>
<g opacity="0.8">
<path opacity="0.8" d="M328.821 208.542H325.089V213.794H328.821V208.542Z" fill="#C4D9ED"/>
<path opacity="0.8" d="M335.8 208.542H332.068V213.794H335.8V208.542Z" fill="#C4D9ED"/>
<path opacity="0.8" d="M342.623 208.542H338.891V213.794H342.623V208.542Z" fill="#C4D9ED"/>
<path opacity="0.8" d="M349.093 208.542H345.361V213.794H349.093V208.542Z" fill="#C4D9ED"/>
<path opacity="0.8" d="M355.687 208.542H351.955V213.794H355.687V208.542Z" fill="#C4D9ED"/>
</g>
</g>
</g>
</g>
</g>
<path d="M284.62 224.994H198.116V271.574H284.62V224.994Z" fill="#C4D9ED"/>
<path d="M219.025 248.285H132.521V271.576H219.025V248.285Z" fill="#C4D9ED"/>
<path d="M378.058 232.252H291.555V271.574H378.058V232.252Z" fill="#C4D9ED"/>
<path d="M220.01 230.449H203.894V239.077H220.01V230.449Z" fill="#D5E7F7"/>
<path d="M240.7 230.449H224.583V239.077H240.7V230.449Z" fill="#D5E7F7"/>
<path d="M260.994 230.449H244.878V239.077H260.994V230.449Z" fill="#D5E7F7"/>
<path d="M280.898 230.449H264.782V239.077H280.898V230.449Z" fill="#D5E7F7"/>
<path d="M292.024 224.994H283.721V271.976H292.024V224.994Z" fill="white"/>
<path d="M395.02 215.908H386.717V271.976H395.02V215.908Z" fill="white"/>
<path d="M386.973 232.252H378.06V271.196H386.973V232.252Z" fill="white"/>
<path d="M371.378 234.568C371.146 235.185 370.588 235.548 370.127 235.377C369.669 235.206 369.483 234.566 369.712 233.95C369.943 233.333 371.632 231.349 371.632 231.349C371.632 231.349 371.609 233.95 371.378 234.568Z" fill="#DCEAF9"/>
<path d="M366.844 219.353C366.612 219.969 366.054 220.332 365.593 220.161C365.135 219.99 364.949 219.35 365.178 218.734C365.41 218.117 367.098 216.133 367.098 216.133C367.098 216.133 367.073 218.734 366.844 219.353Z" fill="#DCEAF9"/>
<path d="M349.459 242.297C349.227 242.914 348.669 243.277 348.209 243.106C347.75 242.934 347.564 242.295 347.793 241.678C348.025 241.062 349.713 239.077 349.713 239.077C349.713 239.077 349.69 241.678 349.459 242.297Z" fill="#DCEAF9"/>
<path d="M363.812 267.428C363.812 267.428 362.211 270.879 365.329 271.13C368.449 271.382 370.303 270.12 371.061 268.606C371.061 268.606 367.183 270.204 367.774 268.269C368.365 266.335 369.881 263.22 369.881 263.22C369.881 263.22 366.596 269.113 364.957 268.83C364.228 268.705 363.812 267.428 363.812 267.428Z" fill="#EBF2F9"/>
<path d="M158.629 141.877H158.178V145.523H158.629V141.877Z" fill="#DCEAF9"/>
<path d="M174.784 141.877H174.334V145.523H174.784V141.877Z" fill="#DCEAF9"/>
<path d="M386.973 215.772H339.362V271.196H386.973V215.772Z" fill="#D5E7F7"/>
<path d="M383.78 204.671H382.9V215.908H383.78V204.671Z" fill="#D5E7F7"/>
<path d="M398.758 231.326H339.362V271.196H398.758V231.326Z" fill="#D5E7F7"/>
<path d="M398.758 226.118H339.362V239.077H398.758V226.118Z" fill="#C4D9ED"/>
<path d="M346.456 242.916H343.406V247.208H346.456V242.916Z" fill="#C4D9ED"/>
<path d="M352.162 242.916H349.112V247.208H352.162V242.916Z" fill="#C4D9ED"/>
<path d="M357.737 242.916H354.687V247.208H357.737V242.916Z" fill="#C4D9ED"/>
<path d="M363.025 242.916H359.975V247.208H363.025V242.916Z" fill="#C4D9ED"/>
<path d="M368.414 242.916H365.364V247.208H368.414V242.916Z" fill="#C4D9ED"/>
<path d="M373.865 242.916H370.815V247.208H373.865V242.916Z" fill="#C4D9ED"/>
<path d="M379.569 242.916H376.519V247.208H379.569V242.916Z" fill="#C4D9ED"/>
<path d="M385.146 242.916H382.096V247.208H385.146V242.916Z" fill="#C4D9ED"/>
<path d="M390.434 242.916H387.384V247.208H390.434V242.916Z" fill="#C4D9ED"/>
<path d="M395.821 242.916H392.771V247.208H395.821V242.916Z" fill="#C4D9ED"/>
<path d="M346.456 250.49H343.406V254.782H346.456V250.49Z" fill="#C4D9ED"/>
<path d="M352.162 250.49H349.112V254.782H352.162V250.49Z" fill="#C4D9ED"/>
<path d="M357.737 250.49H354.687V254.782H357.737V250.49Z" fill="#C4D9ED"/>
<path d="M363.025 250.49H359.975V254.782H363.025V250.49Z" fill="#C4D9ED"/>
<path d="M368.414 250.49H365.364V254.782H368.414V250.49Z" fill="#C4D9ED"/>
<path d="M373.865 250.49H370.815V254.782H373.865V250.49Z" fill="#C4D9ED"/>
<path d="M379.569 250.49H376.519V254.782H379.569V250.49Z" fill="#C4D9ED"/>
<path d="M385.146 250.49H382.096V254.782H385.146V250.49Z" fill="#C4D9ED"/>
<path d="M390.434 250.49H387.384V254.782H390.434V250.49Z" fill="#C4D9ED"/>
<path d="M395.821 250.49H392.771V254.782H395.821V250.49Z" fill="#C4D9ED"/>
<path d="M346.456 257.946H343.406V262.238H346.456V257.946Z" fill="#C4D9ED"/>
<path d="M352.162 257.946H349.112V262.238H352.162V257.946Z" fill="#C4D9ED"/>
<path d="M357.737 257.946H354.687V262.238H357.737V257.946Z" fill="#C4D9ED"/>
<path d="M363.025 257.946H359.975V262.238H363.025V257.946Z" fill="#C4D9ED"/>
<path d="M368.414 257.946H365.364V262.238H368.414V257.946Z" fill="#C4D9ED"/>
<path d="M373.865 257.946H370.815V262.238H373.865V257.946Z" fill="#C4D9ED"/>
<path d="M379.569 257.946H376.519V262.238H379.569V257.946Z" fill="#C4D9ED"/>
<path d="M385.146 257.946H382.096V262.238H385.146V257.946Z" fill="#C4D9ED"/>
<path d="M390.434 257.946H387.384V262.238H390.434V257.946Z" fill="#C4D9ED"/>
<path d="M395.821 257.946H392.771V262.238H395.821V257.946Z" fill="#C4D9ED"/>
<path d="M346.456 229.758H343.894V234.185H346.456V229.758Z" fill="white"/>
<path d="M371.904 229.758H369.342V234.185H371.904V229.758Z" fill="white"/>
<path d="M392.149 229.758H389.587V234.185H392.149V229.758Z" fill="white"/>
<path d="M148.898 231.326H89.5019V271.196H148.898V231.326Z" fill="#D5E7F7"/>
<path d="M148.898 226.118H89.5019V239.077H148.898V226.118Z" fill="#C4D9ED"/>
<path d="M96.596 242.916H93.5459V247.208H96.596V242.916Z" fill="#C4D9ED"/>
<path d="M102.301 242.916H99.2514V247.208H102.301V242.916Z" fill="#C4D9ED"/>
<path d="M107.877 242.916H104.827V247.208H107.877V242.916Z" fill="#C4D9ED"/>
<path d="M113.165 242.916H110.115V247.208H113.165V242.916Z" fill="#C4D9ED"/>
<path d="M118.554 242.916H115.504V247.208H118.554V242.916Z" fill="#C4D9ED"/>
<path d="M124.005 242.916H120.955V247.208H124.005V242.916Z" fill="#C4D9ED"/>
<path d="M129.709 242.916H126.659V247.208H129.709V242.916Z" fill="#C4D9ED"/>
<path d="M135.286 242.916H132.236V247.208H135.286V242.916Z" fill="#C4D9ED"/>
<path d="M140.572 242.916H137.522V247.208H140.572V242.916Z" fill="#C4D9ED"/>
<path d="M145.961 242.916H142.911V247.208H145.961V242.916Z" fill="#C4D9ED"/>
<path d="M96.596 250.49H93.546V254.782H96.596V250.49Z" fill="#C4D9ED"/>
<path d="M102.301 250.49H99.2514V254.782H102.301V250.49Z" fill="#C4D9ED"/>
<path d="M107.877 250.49H104.827V254.782H107.877V250.49Z" fill="#C4D9ED"/>
<path d="M113.165 250.49H110.115V254.782H113.165V250.49Z" fill="#C4D9ED"/>
<path d="M118.554 250.49H115.504V254.782H118.554V250.49Z" fill="#C4D9ED"/>
<path d="M124.005 250.49H120.955V254.782H124.005V250.49Z" fill="#C4D9ED"/>
<path d="M129.709 250.49H126.659V254.782H129.709V250.49Z" fill="#C4D9ED"/>
<path d="M135.286 250.49H132.236V254.782H135.286V250.49Z" fill="#C4D9ED"/>
<path d="M140.572 250.49H137.522V254.782H140.572V250.49Z" fill="#C4D9ED"/>
<path d="M145.961 250.49H142.911V254.782H145.961V250.49Z" fill="#C4D9ED"/>
<path d="M96.596 257.946H93.546V262.238H96.596V257.946Z" fill="#C4D9ED"/>
<path d="M102.301 257.946H99.2514V262.238H102.301V257.946Z" fill="#C4D9ED"/>
<path d="M107.877 257.946H104.827V262.238H107.877V257.946Z" fill="#C4D9ED"/>
<path d="M113.165 257.946H110.115V262.238H113.165V257.946Z" fill="#C4D9ED"/>
<path d="M118.554 257.946H115.504V262.238H118.554V257.946Z" fill="#C4D9ED"/>
<path d="M124.005 257.946H120.955V262.238H124.005V257.946Z" fill="#C4D9ED"/>
<path d="M129.709 257.946H126.659V262.238H129.709V257.946Z" fill="#C4D9ED"/>
<path d="M135.286 257.946H132.236V262.238H135.286V257.946Z" fill="#C4D9ED"/>
<path d="M140.572 257.946H137.522V262.238H140.572V257.946Z" fill="#C4D9ED"/>
<path d="M145.961 257.946H142.911V262.238H145.961V257.946Z" fill="#C4D9ED"/>
<path d="M96.596 229.758H94.0336V234.185H96.596V229.758Z" fill="white"/>
<path d="M122.044 229.758H119.482V234.185H122.044V229.758Z" fill="white"/>
<path d="M142.287 229.758H139.725V234.185H142.287V229.758Z" fill="white"/>
<path d="M85.7699 231.32V271.188H33.5715L26.3658 263.404V231.32H85.7699Z" fill="#D5E7F7"/>
<path d="M85.7742 226.118H26.3784V239.077H85.7742V226.118Z" fill="#C4D9ED"/>
<path d="M33.4702 242.916H30.4202V247.208H33.4702V242.916Z" fill="#C4D9ED"/>
<path d="M39.1757 242.916H36.1256V247.208H39.1757V242.916Z" fill="#C4D9ED"/>
<path d="M44.751 242.916H41.7009V247.208H44.751V242.916Z" fill="#C4D9ED"/>
<path d="M50.0391 242.916H46.989V247.208H50.0391V242.916Z" fill="#C4D9ED"/>
<path d="M55.4283 242.916H52.3782V247.208H55.4283V242.916Z" fill="#C4D9ED"/>
<path d="M60.8795 242.916H57.8295V247.208H60.8795V242.916Z" fill="#C4D9ED"/>
<path d="M66.583 242.916H63.5329V247.208H66.583V242.916Z" fill="#C4D9ED"/>
<path d="M72.1603 242.916H69.1102V247.208H72.1603V242.916Z" fill="#C4D9ED"/>
<path d="M77.4482 242.916H74.3982V247.208H77.4482V242.916Z" fill="#C4D9ED"/>
<path d="M82.8356 242.916H79.7855V247.208H82.8356V242.916Z" fill="#C4D9ED"/>
<path d="M33.4702 250.49H30.4202V254.782H33.4702V250.49Z" fill="#C4D9ED"/>
<path d="M39.1757 250.49H36.1256V254.782H39.1757V250.49Z" fill="#C4D9ED"/>
<path d="M44.751 250.49H41.7009V254.782H44.751V250.49Z" fill="#C4D9ED"/>
<path d="M50.0391 250.49H46.989V254.782H50.0391V250.49Z" fill="#C4D9ED"/>
<path d="M55.4283 250.49H52.3782V254.782H55.4283V250.49Z" fill="#C4D9ED"/>
<path d="M60.8795 250.49H57.8295V254.782H60.8795V250.49Z" fill="#C4D9ED"/>
<path d="M66.583 250.49H63.5329V254.782H66.583V250.49Z" fill="#C4D9ED"/>
<path d="M72.1603 250.49H69.1102V254.782H72.1603V250.49Z" fill="#C4D9ED"/>
<path d="M77.4482 250.49H74.3982V254.782H77.4482V250.49Z" fill="#C4D9ED"/>
<path d="M82.8356 250.49H79.7855V254.782H82.8356V250.49Z" fill="#C4D9ED"/>
<path d="M33.4702 257.946H30.4202V262.238H33.4702V257.946Z" fill="#C4D9ED"/>
<path d="M39.1757 257.946H36.1256V262.238H39.1757V257.946Z" fill="#C4D9ED"/>
<path d="M44.751 257.946H41.7009V262.238H44.751V257.946Z" fill="#C4D9ED"/>
<path d="M50.0391 257.946H46.989V262.238H50.0391V257.946Z" fill="#C4D9ED"/>
<path d="M55.4283 257.946H52.3782V262.238H55.4283V257.946Z" fill="#C4D9ED"/>
<path d="M60.8795 257.946H57.8295V262.238H60.8795V257.946Z" fill="#C4D9ED"/>
<path d="M66.583 257.946H63.5329V262.238H66.583V257.946Z" fill="#C4D9ED"/>
<path d="M72.1603 257.946H69.1102V262.238H72.1603V257.946Z" fill="#C4D9ED"/>
<path d="M77.4482 257.946H74.3982V262.238H77.4482V257.946Z" fill="#C4D9ED"/>
<path d="M82.8356 257.946H79.7855V262.238H82.8356V257.946Z" fill="#C4D9ED"/>
<path d="M33.4702 229.758H30.9078V234.185H33.4702V229.758Z" fill="white"/>
<path d="M58.9185 229.758H56.3561V234.185H58.9185V229.758Z" fill="white"/>
<path d="M79.1635 229.758H76.6011V234.185H79.1635V229.758Z" fill="white"/>
<path d="M22.5015 231.32V256.259C20.5942 251.612 19.6788 246.571 19.6788 241.305C19.6788 241.059 19.6788 240.785 19.7036 240.515C19.7036 240.045 19.7284 239.552 19.7284 239.081C19.7532 238.661 19.778 238.242 19.8028 237.821C19.9267 236.289 20.1003 234.756 20.3483 233.224C20.3483 233.172 20.3731 233.125 20.3731 233.075C20.4227 232.828 20.4723 232.555 20.4971 232.283C20.5467 231.961 20.6211 231.642 20.6955 231.32H22.5015Z" fill="#D5E7F7"/>
<path d="M22.5015 226.106V239.081H19.7284C19.7532 238.661 19.778 238.242 19.8028 237.821C19.9267 236.289 20.1003 234.756 20.3483 233.224C20.3483 233.172 20.3731 233.125 20.3731 233.075C20.4227 232.828 20.4723 232.555 20.4971 232.283C20.5467 231.961 20.6211 231.642 20.6955 231.32C20.9186 230.183 21.1914 229.047 21.4869 227.886C21.5365 227.613 21.6109 227.341 21.6853 227.069C21.7845 226.747 21.8589 226.427 21.9829 226.106H22.5015Z" fill="#C4D9ED"/>
<path opacity="0.4" d="M575.84 221.477C575.6 222.886 575.344 224.278 575.073 225.648C575.011 225.959 574.951 226.271 574.887 226.58L574.854 226.753C574.683 227.589 574.507 228.416 574.325 229.237C573.999 230.711 573.66 232.161 573.306 233.578C573.242 233.838 573.176 234.1 573.112 234.358C572.172 238.065 571.153 241.567 570.108 244.83C569.932 245.372 569.758 245.913 569.581 246.443C569.107 247.874 568.63 249.256 568.155 250.587C567.814 251.533 567.475 252.455 567.136 253.346C565.328 258.146 563.586 262.133 562.181 265.136C560.868 267.941 559.738 270.287 559.17 271.466H290.274V215.51C310.771 217.082 337.996 199.836 357.84 210.428C380.317 222.426 438.909 252.455 476.285 230.744C508.664 211.931 554.632 212.754 575.84 221.477Z" fill="#C4D9ED"/>
<path d="M530.816 270.807H511.73C510.708 269.94 512.437 267.975 514.245 267.843C515.031 267.783 516.025 267.948 517.159 268.187C517.421 264.705 518.922 249.052 524.573 249.681C530.93 250.385 524.573 256.574 522.776 260.238C521.445 262.952 520.04 266.844 519.399 268.68C519.916 268.791 520.449 268.901 520.994 269.002C521.837 266.419 524.972 257.736 528.958 258.241C533.639 258.833 531.756 262.315 528.44 264.381C526.005 265.902 523.017 268.061 521.598 269.105C522.8 269.301 524.057 269.433 525.33 269.404C528.601 269.328 530.196 270.291 530.816 270.807Z" fill="#A8D29F"/>
<path d="M57.4162 270.004C56.5194 268.599 53.8227 264.951 50.2291 265.433C46.3153 265.959 54.5521 268.536 57.0752 270.014C56.5152 270.023 56.0338 269.977 55.6804 269.851C53.9942 269.251 51.1073 270.402 50.1836 270.806H66.2358C66.1242 270.423 65.8349 269.798 65.0889 269.342C64.8244 269.181 64.2954 269.158 63.6114 269.21C64.5661 268.086 65.2294 264.499 62.572 265.423C60.6316 266.098 60.6357 268.29 60.8258 269.587C60.4125 269.651 59.9951 269.717 59.5798 269.777C58.7801 265.712 55.9532 253.796 50.225 253.478C44.4162 253.157 55.1514 265.836 58.7243 269.891C58.2655 269.944 57.8254 269.986 57.4162 270.004Z" fill="#A8D29F"/>
<path d="M130.198 149.288C122.72 149.288 115.837 151.907 110.439 156.282C103.357 162.041 98.8505 170.79 98.8505 180.577C98.8505 197.854 130.201 236.264 130.201 236.264C130.201 236.264 144.438 218.816 153.7 202.157C158.207 194.1 161.551 186.215 161.551 180.58C161.546 163.301 147.507 149.288 130.198 149.288ZM130.198 194.863C122.102 194.863 115.539 188.339 115.539 180.256C115.539 178.278 115.936 176.401 116.653 174.668C118.858 169.355 124.082 165.624 130.198 165.624C138.297 165.624 144.858 172.172 144.858 180.256C144.858 187.25 139.954 193.058 133.393 194.492C132.377 194.741 131.287 194.863 130.198 194.863Z" fill="#F99746"/>
<path d="M527.574 195.142C519.891 195.142 513.661 201.358 513.661 209.029C513.661 216.698 527.574 233.75 527.574 233.75C527.574 233.75 541.487 216.698 541.487 209.029C541.487 201.358 535.257 195.142 527.574 195.142ZM527.574 215.378C523.982 215.378 521.071 212.472 521.071 208.887C521.071 205.302 523.982 202.396 527.574 202.396C531.165 202.396 534.077 205.302 534.077 208.887C534.077 212.472 531.165 215.378 527.574 215.378Z" fill="#F99746"/>
<path d="M66.583 210.916C62.3757 210.916 58.964 214.322 58.964 218.521C58.964 222.721 66.583 232.058 66.583 232.058C66.583 232.058 74.202 222.721 74.202 218.521C74.202 214.322 70.7923 210.916 66.583 210.916ZM66.583 221.999C64.6157 221.999 63.0225 220.407 63.0225 218.445C63.0225 216.481 64.6178 214.891 66.583 214.891C68.5502 214.891 70.1435 216.483 70.1435 218.445C70.1455 220.409 68.5502 221.999 66.583 221.999Z" fill="#699FF0"/>
<path d="M144.075 270.807C144.075 270.807 149.536 254.537 165.181 251.406C180.826 248.274 192.409 260.502 206.347 255.735C220.287 250.968 242.258 225.745 268.409 244.18C294.559 262.616 292.844 267.865 309.339 263.558C325.831 259.252 329.604 270.807 329.604 270.807H144.075Z" fill="#A8D29F"/>
<path d="M160.137 255.502C160.137 255.502 148.726 243.559 142.897 246.761C137.067 249.964 160.137 255.502 160.137 255.502Z" fill="#A8D29F"/>
<path d="M157.225 258.522C157.225 258.522 146.707 255.1 144.075 256.81C141.442 258.522 157.225 258.522 157.225 258.522Z" fill="#A8D29F"/>
<path d="M190.689 257.426C190.689 257.426 197.918 241.239 200.427 244.184C202.933 247.13 190.689 257.426 190.689 257.426Z" fill="#A8D29F"/>
<path d="M188.921 256.331C188.921 256.331 191.872 244.479 187.445 245.216C183.019 245.952 188.921 256.331 188.921 256.331Z" fill="#A8D29F"/>
<path d="M523.774 188.791C523.759 188.745 523.412 187.628 522.668 185.596C522.565 185.309 522.247 185.163 521.959 185.266C521.672 185.371 521.523 185.689 521.629 185.975C522.36 187.976 522.712 189.104 522.716 189.117C522.788 189.356 523.007 189.509 523.245 189.509C523.299 189.509 523.352 189.5 523.406 189.484C523.697 189.391 523.863 189.082 523.774 188.791ZM521.474 182.469C521.077 181.464 520.653 180.423 520.215 179.377C520.096 179.097 519.773 178.965 519.492 179.082C519.209 179.202 519.077 179.524 519.195 179.804C519.631 180.844 520.05 181.877 520.445 182.873C520.532 183.09 520.738 183.224 520.961 183.224C521.027 183.224 521.096 183.212 521.162 183.185C521.447 183.071 521.587 182.752 521.474 182.469ZM88.6505 180.233C87.6607 179.746 86.644 179.272 85.6273 178.82C85.3484 178.696 85.0219 178.822 84.8979 179.101C84.7739 179.379 84.8999 179.705 85.1789 179.829C86.1811 180.274 87.1854 180.743 88.1608 181.225C88.2372 181.262 88.322 181.283 88.4046 181.283C88.6071 181.283 88.8055 181.167 88.9026 180.974C89.0349 180.699 88.9254 180.369 88.6505 180.233ZM82.5566 177.523C81.5316 177.112 80.4839 176.712 79.4383 176.337C79.1511 176.234 78.8349 176.382 78.7295 176.671C78.6283 176.958 78.7771 177.273 79.0643 177.378C80.0954 177.75 81.1307 178.144 82.1454 178.55C82.2115 178.577 82.2817 178.589 82.352 178.589C82.5711 178.589 82.7798 178.457 82.8645 178.243C82.9761 177.958 82.8397 177.636 82.5566 177.523ZM518.895 176.316C518.453 175.318 517.99 174.297 517.519 173.282C517.391 173.006 517.062 172.886 516.785 173.014C516.508 173.142 516.386 173.47 516.516 173.748C516.983 174.755 517.444 175.772 517.884 176.764C517.975 176.972 518.176 177.094 518.389 177.094C518.463 177.094 518.539 177.077 518.612 177.048C518.893 176.921 519.019 176.595 518.895 176.316ZM76.2829 175.264C75.2393 174.926 74.1648 174.602 73.0943 174.297C72.8009 174.21 72.4951 174.381 72.4103 174.674C72.3256 174.967 72.4951 175.272 72.7885 175.357C73.8486 175.66 74.9107 175.982 75.944 176.316C75.9998 176.335 76.0576 176.343 76.1134 176.343C76.3448 176.343 76.5618 176.192 76.6404 175.959C76.7354 175.669 76.5763 175.357 76.2829 175.264ZM69.8748 173.433C68.8085 173.162 67.7154 172.907 66.6305 172.667C66.3309 172.601 66.0374 172.791 65.9713 173.086C65.9072 173.385 66.0953 173.68 66.3949 173.744C67.4674 173.981 68.5482 174.235 69.6062 174.499C69.6496 174.509 69.6971 174.518 69.7405 174.518C69.9885 174.518 70.2137 174.351 70.2757 174.101C70.3501 173.806 70.1724 173.507 69.8748 173.433ZM63.3676 172.001C62.2868 171.795 61.1833 171.603 60.0861 171.428C59.7844 171.376 59.5012 171.585 59.4537 171.886C59.4041 172.187 59.6087 172.471 59.9125 172.519C60.9994 172.694 62.0946 172.884 63.163 173.086C63.1981 173.092 63.2312 173.096 63.2663 173.096C63.5246 173.096 63.7581 172.911 63.8077 172.647C63.8656 172.348 63.6672 172.059 63.3676 172.001ZM56.7901 170.945C55.7052 170.799 54.5955 170.665 53.4838 170.545C53.1779 170.512 52.9072 170.731 52.8762 171.034C52.8432 171.339 53.0622 171.609 53.366 171.644C54.4653 171.764 55.5709 171.896 56.6454 172.04C56.6702 172.045 56.695 172.045 56.7177 172.045C56.9926 172.045 57.2282 171.844 57.2674 171.568C57.3067 171.263 57.0938 170.984 56.7901 170.945ZM516.091 170.273C515.611 169.283 515.113 168.28 514.611 167.29C514.475 167.018 514.142 166.909 513.867 167.045C513.594 167.183 513.487 167.515 513.623 167.787C514.121 168.773 514.617 169.772 515.095 170.753C515.19 170.949 515.386 171.065 515.593 171.065C515.673 171.065 515.756 171.046 515.835 171.009C516.107 170.877 516.223 170.547 516.091 170.273ZM513.084 164.334C512.572 163.361 512.041 162.375 511.509 161.404C511.363 161.135 511.028 161.038 510.759 161.185C510.491 161.331 510.392 161.665 510.538 161.934C511.067 162.899 511.596 163.879 512.105 164.848C512.204 165.036 512.396 165.141 512.596 165.141C512.683 165.141 512.772 165.12 512.853 165.079C513.121 164.937 513.225 164.603 513.084 164.334ZM509.885 158.499C509.34 157.54 508.78 156.571 508.218 155.62C508.063 155.358 507.722 155.271 507.461 155.426C507.199 155.581 507.11 155.919 507.265 156.181C507.825 157.128 508.383 158.091 508.924 159.046C509.026 159.225 509.214 159.324 509.406 159.324C509.499 159.324 509.592 159.302 509.679 159.254C509.943 159.1 510.036 158.763 509.885 158.499ZM168.926 152.901C168.678 152.724 168.333 152.784 168.155 153.033C167.519 153.933 166.876 154.851 166.252 155.758C166.078 156.01 166.144 156.352 166.396 156.527C166.491 156.591 166.601 156.622 166.708 156.622C166.886 156.622 167.058 156.538 167.165 156.383C167.787 155.478 168.424 154.566 169.06 153.671C169.236 153.423 169.176 153.079 168.926 152.901ZM506.502 152.769C505.922 151.823 505.333 150.872 504.744 149.948C504.581 149.69 504.24 149.612 503.981 149.777C503.723 149.94 503.647 150.28 503.812 150.538C504.397 151.458 504.984 152.404 505.562 153.345C505.666 153.518 505.847 153.611 506.033 153.611C506.133 153.611 506.23 153.584 506.321 153.528C506.581 153.368 506.662 153.027 506.502 152.769ZM172.85 147.555C172.604 147.374 172.259 147.423 172.075 147.667C171.41 148.551 170.742 149.451 170.095 150.338C169.916 150.585 169.969 150.93 170.217 151.111C170.314 151.181 170.43 151.214 170.542 151.214C170.711 151.214 170.881 151.136 170.988 150.989C171.633 150.107 172.296 149.211 172.957 148.333C173.143 148.085 173.094 147.741 172.85 147.555ZM502.94 147.151C502.332 146.225 501.708 145.297 501.09 144.385C500.919 144.133 500.574 144.069 500.322 144.238C500.068 144.412 500.003 144.754 500.173 145.006C500.789 145.911 501.407 146.837 502.012 147.757C502.117 147.918 502.295 148.007 502.477 148.007C502.58 148.007 502.686 147.976 502.781 147.916C503.035 147.749 503.105 147.407 502.94 147.151ZM176.929 142.326C176.689 142.137 176.342 142.174 176.152 142.413C175.464 143.273 174.772 144.152 174.094 145.024C173.906 145.266 173.949 145.614 174.191 145.8C174.292 145.876 174.412 145.915 174.53 145.915C174.695 145.915 174.861 145.843 174.968 145.703C175.644 144.832 176.332 143.958 177.014 143.104C177.206 142.863 177.167 142.516 176.929 142.326ZM499.195 141.65C498.561 140.749 497.908 139.839 497.259 138.948C497.077 138.7 496.732 138.645 496.484 138.826C496.238 139.006 496.183 139.35 496.362 139.598C497.009 140.482 497.656 141.386 498.29 142.285C498.4 142.438 498.569 142.52 498.745 142.52C498.857 142.52 498.966 142.489 499.061 142.421C499.311 142.244 499.373 141.899 499.195 141.65ZM181.161 137.219C180.926 137.023 180.578 137.052 180.38 137.283C179.669 138.121 178.95 138.977 178.248 139.833C178.053 140.068 178.086 140.416 178.322 140.608C178.423 140.695 178.549 140.736 178.673 140.736C178.832 140.736 178.989 140.666 179.101 140.532C179.799 139.684 180.514 138.828 181.223 137.997C181.424 137.766 181.395 137.417 181.161 137.219ZM495.277 136.277C494.612 135.396 493.93 134.507 493.25 133.639C493.064 133.397 492.715 133.354 492.475 133.542C492.234 133.729 492.19 134.076 492.378 134.317C493.054 135.182 493.73 136.064 494.393 136.941C494.501 137.085 494.668 137.162 494.833 137.162C494.951 137.162 495.067 137.125 495.168 137.048C495.412 136.867 495.461 136.52 495.277 136.277ZM185.548 132.244C185.321 132.04 184.972 132.059 184.767 132.284C184.025 133.102 183.283 133.938 182.554 134.767C182.354 134.996 182.376 135.347 182.608 135.547C182.711 135.639 182.841 135.683 182.971 135.683C183.126 135.683 183.279 135.619 183.387 135.495C184.112 134.67 184.852 133.839 185.588 133.024C185.79 132.799 185.773 132.449 185.548 132.244ZM491.182 131.036C490.487 130.174 489.777 129.311 489.068 128.468C488.874 128.235 488.524 128.204 488.289 128.398C488.055 128.594 488.022 128.94 488.221 129.175C488.921 130.017 489.63 130.877 490.32 131.731C490.432 131.865 490.591 131.937 490.752 131.937C490.874 131.937 490.996 131.898 491.099 131.813C491.337 131.621 491.374 131.273 491.182 131.036ZM190.084 127.41C189.865 127.197 189.516 127.203 189.303 127.424C188.532 128.222 187.763 129.035 187.015 129.835C186.807 130.058 186.821 130.407 187.044 130.615C187.15 130.714 187.286 130.765 187.42 130.765C187.569 130.765 187.716 130.706 187.825 130.588C188.571 129.79 189.336 128.983 190.101 128.187C190.311 127.971 190.305 127.62 190.084 127.41ZM486.913 125.935C486.187 125.097 485.447 124.258 484.714 123.439C484.509 123.214 484.16 123.194 483.933 123.398C483.705 123.602 483.685 123.951 483.889 124.177C484.621 124.992 485.357 125.826 486.078 126.659C486.185 126.785 486.34 126.851 486.495 126.851C486.623 126.851 486.751 126.807 486.857 126.717C487.088 126.512 487.113 126.166 486.913 125.935ZM194.773 122.717C194.56 122.499 194.211 122.494 193.992 122.709C193.207 123.472 192.409 124.262 191.628 125.048C191.413 125.264 191.413 125.613 191.63 125.828C191.737 125.935 191.88 125.988 192.018 125.988C192.163 125.988 192.303 125.933 192.413 125.826C193.19 125.044 193.981 124.26 194.763 123.497C194.984 123.286 194.988 122.936 194.773 122.717ZM482.472 120.983C481.715 120.17 480.947 119.357 480.186 118.567C479.973 118.346 479.624 118.34 479.403 118.553C479.184 118.763 479.178 119.114 479.389 119.332C480.145 120.118 480.91 120.927 481.662 121.735C481.769 121.853 481.918 121.913 482.067 121.913C482.201 121.913 482.337 121.863 482.443 121.764C482.666 121.556 482.68 121.205 482.472 120.983ZM199.612 118.181C199.404 117.957 199.055 117.94 198.829 118.146C198.017 118.889 197.197 119.648 196.393 120.407C196.17 120.617 196.162 120.966 196.37 121.187C196.478 121.302 196.624 121.362 196.771 121.362C196.908 121.362 197.046 121.31 197.151 121.209C197.953 120.457 198.767 119.7 199.577 118.961C199.803 118.755 199.817 118.404 199.612 118.181ZM477.859 116.189C477.078 115.405 476.283 114.621 475.489 113.854C475.27 113.642 474.921 113.646 474.708 113.864C474.495 114.085 474.499 114.434 474.718 114.646C475.506 115.407 476.299 116.187 477.074 116.967C477.182 117.074 477.324 117.127 477.467 117.127C477.609 117.127 477.748 117.074 477.855 116.967C478.072 116.754 478.072 116.406 477.859 116.189ZM204.595 113.805C204.396 113.574 204.045 113.547 203.814 113.745C202.977 114.458 202.134 115.191 201.303 115.925C201.076 116.125 201.053 116.476 201.257 116.705C201.365 116.828 201.518 116.89 201.671 116.89C201.801 116.89 201.931 116.843 202.038 116.752C202.863 116.024 203.702 115.294 204.535 114.582C204.766 114.384 204.791 114.036 204.595 113.805ZM209.719 109.595C209.529 109.356 209.18 109.318 208.942 109.508C208.079 110.195 207.213 110.903 206.359 111.604C206.122 111.798 206.091 112.146 206.287 112.381C206.395 112.513 206.554 112.581 206.713 112.581C206.837 112.581 206.963 112.54 207.066 112.454C207.911 111.756 208.777 111.053 209.633 110.37C209.872 110.179 209.91 109.832 209.719 109.595ZM473.076 111.565C472.268 110.81 471.443 110.055 470.625 109.316C470.397 109.114 470.048 109.131 469.844 109.356C469.637 109.582 469.658 109.931 469.883 110.137C470.697 110.867 471.517 111.62 472.321 112.371C472.427 112.47 472.563 112.52 472.7 112.52C472.846 112.52 472.993 112.462 473.102 112.344C473.311 112.122 473.301 111.773 473.076 111.565ZM214.985 105.558C214.801 105.315 214.456 105.265 214.21 105.447C213.33 106.101 212.437 106.777 211.559 107.454C211.317 107.639 211.273 107.986 211.459 108.227C211.567 108.37 211.732 108.444 211.898 108.444C212.015 108.444 212.135 108.407 212.236 108.326C213.108 107.656 213.995 106.984 214.871 106.33C215.117 106.15 215.167 105.804 214.985 105.558ZM468.131 107.114C467.296 106.392 466.444 105.668 465.597 104.958C465.362 104.764 465.012 104.795 464.816 105.028C464.622 105.261 464.653 105.61 464.886 105.806C465.729 106.511 466.577 107.231 467.405 107.949C467.509 108.04 467.639 108.083 467.769 108.083C467.924 108.083 468.077 108.019 468.186 107.893C468.385 107.664 468.362 107.316 468.131 107.114ZM220.382 101.705C220.207 101.456 219.862 101.394 219.612 101.569C218.704 102.196 217.791 102.842 216.892 103.487C216.644 103.665 216.588 104.011 216.766 104.259C216.874 104.409 217.045 104.488 217.217 104.488C217.328 104.488 217.44 104.453 217.537 104.385C218.432 103.741 219.341 103.102 220.242 102.477C220.494 102.301 220.556 101.957 220.382 101.705ZM463.022 102.852C462.156 102.157 461.278 101.464 460.408 100.794C460.167 100.606 459.819 100.651 459.631 100.893C459.445 101.134 459.489 101.481 459.73 101.666C460.594 102.332 461.468 103.021 462.328 103.714C462.429 103.797 462.551 103.836 462.673 103.836C462.834 103.836 462.996 103.766 463.105 103.63C463.299 103.39 463.26 103.044 463.022 102.852ZM225.908 98.038C225.743 97.7822 225.402 97.7059 225.141 97.873C224.214 98.4712 223.277 99.0838 222.36 99.6964C222.108 99.8655 222.04 100.208 222.209 100.464C222.314 100.622 222.49 100.709 222.67 100.709C222.773 100.709 222.883 100.678 222.976 100.614C223.889 100.004 224.819 99.3952 225.743 98.8032C225.999 98.6362 226.073 98.2938 225.908 98.038ZM457.757 98.7826C456.868 98.1226 455.963 97.4646 455.067 96.8252C454.819 96.6478 454.473 96.7056 454.294 96.9531C454.116 97.2006 454.174 97.5471 454.422 97.7245C455.31 98.3577 456.211 99.0116 457.096 99.6695C457.195 99.7417 457.311 99.7768 457.426 99.7768C457.596 99.7768 457.763 99.6984 457.871 99.554C458.053 99.3127 458.001 98.9662 457.757 98.7826ZM231.558 94.5625C231.401 94.3006 231.062 94.216 230.799 94.3707C229.855 94.9358 228.896 95.5175 227.958 96.0971C227.698 96.258 227.617 96.5983 227.778 96.8582C227.881 97.0253 228.063 97.1181 228.249 97.1181C228.348 97.1181 228.448 97.0913 228.539 97.0335C229.475 96.4539 230.423 95.8785 231.365 95.3174C231.628 95.1627 231.715 94.8245 231.558 94.5625ZM452.341 94.9193C451.428 94.2944 450.498 93.6715 449.576 93.0671C449.32 92.9 448.977 92.9702 448.807 93.2259C448.64 93.4796 448.71 93.822 448.966 93.9912C449.88 94.5914 450.806 95.2102 451.713 95.831C451.808 95.897 451.917 95.928 452.025 95.928C452.202 95.928 452.374 95.8434 452.481 95.6887C452.655 95.4371 452.591 95.0926 452.341 94.9193ZM237.323 91.283C237.174 91.0148 236.84 90.9179 236.571 91.0664C235.602 91.5985 234.626 92.1472 233.67 92.6938C233.403 92.8464 233.314 93.1826 233.465 93.4466C233.566 93.6261 233.752 93.7251 233.944 93.7251C234.037 93.7251 234.132 93.7003 234.219 93.6529C235.17 93.1084 236.139 92.5618 237.102 92.0338C237.373 91.8852 237.47 91.549 237.323 91.283ZM446.778 91.2685C445.848 90.6827 444.896 90.0949 443.943 89.5236C443.682 89.3668 443.344 89.4514 443.184 89.7113C443.027 89.9711 443.112 90.3115 443.373 90.4682C444.317 91.0375 445.265 91.6212 446.187 92.2029C446.28 92.2606 446.381 92.2875 446.48 92.2875C446.664 92.2875 446.844 92.1967 446.95 92.0317C447.115 91.7718 447.036 91.4294 446.778 91.2685ZM243.198 88.2014C243.06 87.9292 242.727 87.8219 242.452 87.958C241.47 88.4572 240.476 88.9728 239.499 89.4864C239.228 89.6308 239.127 89.9629 239.27 90.2331C239.369 90.4208 239.561 90.526 239.759 90.526C239.848 90.526 239.937 90.5054 240.018 90.462C240.989 89.9505 241.979 89.439 242.956 88.9419C243.227 88.8058 243.336 88.4737 243.198 88.2014ZM441.075 87.8363C440.116 87.2815 439.14 86.7349 438.175 86.2048C437.909 86.0563 437.572 86.1532 437.423 86.4214C437.277 86.6895 437.374 87.0237 437.642 87.1722C438.601 87.6981 439.57 88.2427 440.523 88.7934C440.61 88.8429 440.705 88.8656 440.798 88.8656C440.99 88.8656 441.176 88.7666 441.277 88.5892C441.432 88.3252 441.341 87.989 441.075 87.8363ZM249.176 85.3241C249.046 85.0477 248.717 84.9281 248.438 85.0559C247.44 85.52 246.43 85.9986 245.434 86.4833C245.159 86.6153 245.045 86.9473 245.18 87.2217C245.275 87.4176 245.471 87.5331 245.678 87.5331C245.758 87.5331 245.841 87.5125 245.919 87.4754C246.909 86.9969 247.916 86.5183 248.908 86.0604C249.182 85.9284 249.304 85.6025 249.176 85.3241ZM435.245 84.629C434.266 84.1133 433.27 83.6039 432.284 83.1109C432.011 82.9748 431.679 83.0841 431.542 83.3563C431.406 83.6307 431.515 83.9607 431.788 84.0989C432.765 84.5877 433.757 85.0951 434.731 85.6046C434.813 85.6479 434.9 85.6685 434.987 85.6685C435.185 85.6685 435.377 85.5613 435.477 85.3715C435.621 85.1054 435.518 84.7713 435.245 84.629ZM255.245 82.6509C255.125 82.3704 254.803 82.2405 254.52 82.3601C253.507 82.7891 252.48 83.2346 251.468 83.6822C251.189 83.806 251.063 84.1298 251.187 84.4103C251.28 84.6166 251.48 84.7362 251.693 84.7362C251.768 84.7362 251.844 84.7218 251.916 84.6909C252.921 84.2453 253.943 83.7998 254.952 83.3749C255.235 83.2553 255.365 82.9314 255.245 82.6509ZM429.292 81.6526C428.296 81.1803 427.281 80.708 426.273 80.2542C425.994 80.1284 425.667 80.2501 425.541 80.5285C425.415 80.807 425.539 81.1328 425.818 81.2587C426.818 81.7124 427.827 82.1765 428.816 82.6509C428.895 82.686 428.976 82.7046 429.056 82.7046C429.263 82.7046 429.461 82.587 429.554 82.391C429.686 82.1147 429.569 81.7846 429.292 81.6526ZM261.403 80.184C261.292 79.8994 260.974 79.7571 260.688 79.8664C259.657 80.2645 258.618 80.6749 257.593 81.0875C257.31 81.203 257.175 81.5227 257.289 81.8053C257.376 82.0218 257.58 82.1518 257.799 82.1518C257.87 82.1518 257.938 82.1394 258.008 82.1105C259.027 81.7001 260.062 81.2917 261.087 80.8977C261.372 80.7863 261.515 80.4687 261.403 80.184ZM423.229 78.9135C422.212 78.4783 421.179 78.0472 420.158 77.6326C419.875 77.5171 419.553 77.6532 419.437 77.9358C419.321 78.2184 419.46 78.5401 419.743 78.6557C420.757 79.0682 421.784 79.4972 422.795 79.9283C422.865 79.9592 422.94 79.9716 423.012 79.9716C423.227 79.9716 423.429 79.8478 423.52 79.6375C423.64 79.3569 423.51 79.0331 423.229 78.9135ZM267.642 77.9214C267.541 77.6326 267.225 77.48 266.935 77.581C265.894 77.9441 264.84 78.3194 263.802 78.6969C263.517 78.8021 263.369 79.1177 263.476 79.4064C263.559 79.6292 263.767 79.7695 263.995 79.7695C264.059 79.7695 264.123 79.7591 264.185 79.7365C265.216 79.359 266.266 78.9857 267.303 78.6247C267.588 78.5236 267.741 78.2101 267.642 77.9214ZM273.947 75.8629C273.856 75.5741 273.546 75.4091 273.254 75.4999C272.194 75.8299 271.128 76.1723 270.087 76.5147C269.797 76.6116 269.64 76.9231 269.735 77.2118C269.814 77.4428 270.027 77.5913 270.26 77.5913C270.318 77.5913 270.378 77.5831 270.436 77.5625C271.471 77.2221 272.533 76.8818 273.587 76.5559C273.874 76.4652 274.038 76.1558 273.947 75.8629ZM417.063 76.4115C416.036 76.0176 414.988 75.6277 413.944 75.2503C413.657 75.1471 413.341 75.2936 413.235 75.5824C413.132 75.8691 413.279 76.1846 413.564 76.2898C414.599 76.6652 415.645 77.0551 416.664 77.4449C416.728 77.4697 416.796 77.48 416.86 77.48C417.083 77.48 417.294 77.3459 417.379 77.1273C417.49 76.8406 417.348 76.5188 417.063 76.4115ZM280.318 74.0107C280.235 73.7178 279.931 73.5445 279.636 73.627C278.569 73.922 277.493 74.2293 276.439 74.5387C276.145 74.6253 275.976 74.9326 276.063 75.2255C276.133 75.4669 276.354 75.6216 276.594 75.6216C276.645 75.6216 276.697 75.6154 276.751 75.5989C277.801 75.2895 278.871 74.9842 279.933 74.6913C280.227 74.6088 280.4 74.3056 280.318 74.0107ZM410.805 74.1488C409.762 73.7941 408.695 73.4434 407.644 73.1093C407.354 73.0165 407.042 73.1753 406.949 73.4661C406.856 73.7569 407.018 74.0663 407.307 74.1592C408.355 74.4933 409.41 74.8419 410.45 75.1925C410.508 75.2132 410.568 75.2235 410.628 75.2235C410.857 75.2235 411.072 75.077 411.152 74.8481C411.248 74.5634 411.093 74.2499 410.805 74.1488ZM286.744 72.3606C286.672 72.0656 286.372 71.882 286.077 71.9542C285.002 72.2141 283.917 72.4884 282.851 72.7648C282.555 72.8432 282.378 73.1444 282.454 73.4393C282.518 73.6889 282.744 73.8518 282.989 73.8518C283.035 73.8518 283.082 73.8477 283.128 73.8333C284.188 73.5569 285.267 73.2887 286.337 73.0268C286.633 72.9546 286.814 72.6555 286.744 72.3606ZM404.463 72.1296C403.407 71.814 402.333 71.5046 401.267 71.2076C400.975 71.1251 400.669 71.2983 400.587 71.5912C400.504 71.8841 400.676 72.1894 400.969 72.2719C402.029 72.5648 403.098 72.8721 404.147 73.1856C404.201 73.2 404.253 73.2104 404.306 73.2104C404.546 73.2104 404.765 73.0557 404.835 72.8143C404.924 72.5235 404.757 72.2162 404.463 72.1296ZM293.216 70.9044C293.154 70.6053 292.861 70.4155 292.561 70.4774C292.055 70.5847 291.549 70.696 291.038 70.8074C290.462 70.9332 289.885 71.0611 289.313 71.1911C289.013 71.2591 288.827 71.5561 288.895 71.8532C288.955 72.1089 289.183 72.2822 289.435 72.2822C289.474 72.2822 289.517 72.2781 289.559 72.2698C290.129 72.1399 290.701 72.012 291.276 71.8882C291.782 71.7768 292.286 71.6675 292.791 71.5582C293.09 71.4963 293.28 71.2034 293.216 70.9044ZM398.053 70.3495C396.989 70.0731 395.902 69.805 394.826 69.5472C394.526 69.477 394.228 69.6606 394.158 69.9556C394.088 70.2505 394.272 70.5496 394.567 70.6197C395.638 70.8755 396.718 71.1436 397.778 71.4179C397.824 71.4283 397.871 71.4365 397.917 71.4365C398.163 71.4365 398.386 71.2715 398.45 71.0219C398.526 70.727 398.349 70.4238 398.053 70.3495ZM299.726 69.5967C299.668 69.2976 299.378 69.1016 299.077 69.1594C298 69.3656 296.901 69.5822 295.816 69.8029C295.514 69.8627 295.322 70.1536 295.382 70.4547C295.436 70.7146 295.667 70.8961 295.923 70.8961C295.961 70.8961 295.996 70.892 296.035 70.8858C297.12 70.6672 298.213 70.4506 299.285 70.2443C299.587 70.1866 299.783 69.8978 299.726 69.5967ZM391.581 68.8046C390.505 68.5674 389.407 68.3385 388.324 68.1219C388.025 68.06 387.733 68.2539 387.674 68.553C387.614 68.8541 387.806 69.1429 388.107 69.2048C389.184 69.4193 390.273 69.6482 391.346 69.8834C391.385 69.8916 391.426 69.8957 391.463 69.8957C391.718 69.8957 391.947 69.7184 392.003 69.4626C392.067 69.1656 391.879 68.8706 391.581 68.8046ZM306.26 68.4354C306.208 68.1343 305.923 67.9321 305.623 67.9816C304.536 68.1652 303.435 68.357 302.346 68.5509C302.044 68.6066 301.846 68.8933 301.902 69.1945C301.947 69.4605 302.183 69.6482 302.443 69.6482C302.476 69.6482 302.509 69.6462 302.542 69.64C303.627 69.4461 304.724 69.2543 305.805 69.0728C306.107 69.0212 306.311 68.7366 306.26 68.4354ZM385.057 67.4949C383.97 67.2989 382.869 67.1071 381.778 66.9276C381.478 66.8781 381.191 67.0823 381.144 67.3855C381.092 67.6867 381.299 67.9693 381.6 68.0188C382.685 68.1961 383.78 68.3859 384.859 68.5819C384.892 68.588 384.925 68.5901 384.958 68.5901C385.219 68.5901 385.454 68.4045 385.5 68.1363C385.555 67.8373 385.355 67.5506 385.057 67.4949ZM312.819 67.4206C312.775 67.1195 312.496 66.9111 312.192 66.9545C311.101 67.1112 309.996 67.2783 308.905 67.4495C308.603 67.499 308.396 67.7816 308.444 68.0806C308.485 68.3529 308.721 68.5468 308.987 68.5468C309.016 68.5468 309.045 68.5447 309.076 68.5406C310.163 68.3715 311.265 68.2044 312.352 68.0476C312.653 68.0023 312.864 67.7217 312.819 67.4206ZM319.402 66.5626C319.365 66.2594 319.09 66.0428 318.786 66.0778C317.697 66.2099 316.588 66.3501 315.486 66.4945C315.183 66.5337 314.972 66.8121 315.011 67.1153C315.046 67.3938 315.286 67.5939 315.557 67.5939C315.581 67.5939 315.606 67.5918 315.629 67.5897C316.726 67.4433 317.834 67.3051 318.917 67.1752C319.223 67.1401 319.437 66.8658 319.402 66.5626ZM378.492 66.4161C377.403 66.2573 376.296 66.1047 375.196 65.9623C374.891 65.9231 374.616 66.1377 374.576 66.4388C374.539 66.7399 374.752 67.0184 375.054 67.0576C376.147 67.1958 377.248 67.3484 378.331 67.5072C378.358 67.5114 378.385 67.5134 378.41 67.5134C378.68 67.5134 378.916 67.3154 378.959 67.0411C379.003 66.742 378.792 66.4615 378.492 66.4161ZM325.401 65.3704C324.304 65.4735 323.19 65.5869 322.091 65.7045C321.787 65.7375 321.568 66.0098 321.599 66.3109C321.63 66.5956 321.872 66.806 322.151 66.806C322.171 66.806 322.19 66.8039 322.211 66.8018C323.306 66.6843 324.415 66.5729 325.504 66.4677C325.808 66.4388 326.031 66.1686 326.003 65.8675C325.974 65.5622 325.705 65.3415 325.401 65.3704ZM371.894 65.5643C370.795 65.4405 369.681 65.325 368.584 65.2219C368.28 65.193 368.011 65.4137 367.982 65.719C367.953 66.0222 368.175 66.2903 368.48 66.3192C369.571 66.4244 370.677 66.5399 371.77 66.6616C371.791 66.6636 371.811 66.6657 371.832 66.6657C372.111 66.6657 372.351 66.4553 372.382 66.1748C372.415 65.8716 372.196 65.5993 371.894 65.5643ZM332.03 64.83C330.933 64.9042 329.817 64.9867 328.714 65.0775C328.408 65.1043 328.183 65.3683 328.207 65.6736C328.232 65.9623 328.474 66.1789 328.759 66.1789H328.805C329.904 66.0882 331.016 66.0036 332.107 65.9293C332.413 65.9087 332.642 65.6468 332.619 65.3415C332.599 65.0362 332.342 64.8073 332.03 64.83ZM365.271 64.9331C364.176 64.8444 363.06 64.766 361.952 64.6959C361.643 64.6753 361.384 64.9083 361.366 65.2116C361.345 65.5168 361.578 65.7788 361.88 65.7994C362.982 65.8675 364.093 65.9479 365.182 66.0345C365.199 66.0366 365.213 66.0366 365.226 66.0366C365.511 66.0366 365.755 65.818 365.777 65.5292C365.802 65.2219 365.573 64.9578 365.271 64.9331ZM338.674 64.4649C337.579 64.5082 336.459 64.5639 335.353 64.6237C335.047 64.6423 334.814 64.9001 334.83 65.2054C334.847 65.5003 335.089 65.7293 335.382 65.7293C335.392 65.7293 335.403 65.7293 335.413 65.7272C336.517 65.6674 337.63 65.6138 338.721 65.5704C339.027 65.5581 339.263 65.2982 339.25 64.995C339.236 64.6876 338.972 64.4546 338.674 64.4649ZM358.63 64.5123C357.53 64.4587 356.412 64.4154 355.305 64.3803C355.003 64.3741 354.745 64.6093 354.734 64.9145C354.726 65.2198 354.964 65.4735 355.27 65.4838C356.371 65.5189 357.485 65.5643 358.578 65.6138H358.605C358.898 65.6138 359.142 65.3848 359.159 65.0878C359.169 64.7846 358.935 64.5268 358.63 64.5123ZM345.332 64.2854H345.326C344.229 64.2978 343.109 64.3205 342.001 64.3514C341.695 64.3597 341.455 64.6113 341.464 64.9187C341.47 65.2177 341.718 65.4549 342.015 65.4549H342.032C343.135 65.424 344.251 65.4013 345.342 65.3889C345.648 65.3848 345.894 65.1352 345.89 64.83C345.88 64.5288 345.634 64.2854 345.332 64.2854ZM351.978 64.2999C350.876 64.2813 349.756 64.271 348.653 64.2689C348.651 64.2689 348.651 64.2689 348.651 64.2689C348.345 64.2689 348.097 64.5165 348.097 64.8197C348.097 65.127 348.345 65.3745 348.651 65.3745C349.75 65.3766 350.864 65.3869 351.961 65.4054H351.969C352.271 65.4054 352.519 65.1641 352.523 64.863C352.527 64.5556 352.284 64.304 351.978 64.2999Z" fill="#FF9136"/>
<path d="M390.593 209.462L389.337 208.439L406.172 186.479L412.25 186.225L390.593 209.462Z" fill="#699FF0"/>
<path d="M368.596 209.462L367.555 208.439L381.485 186.479L386.512 186.225L368.596 209.462Z" fill="#699FF0"/>
<path d="M273.174 159.77C277.252 159.77 280.557 156.391 280.557 152.223C280.557 148.055 277.252 144.676 273.174 144.676C269.096 144.676 265.79 148.055 265.79 152.223C265.79 156.391 269.096 159.77 273.174 159.77Z" fill="#699FF0"/>
<path d="M359.45 253.961H284.378C283.562 253.961 282.894 253.291 282.894 252.47V245.389C282.894 244.568 283.562 243.898 284.378 243.898H350.694C351.511 243.898 352.178 244.568 352.178 245.389L359.45 253.961Z" fill="#699FF0"/>
<path d="M382.547 270.806C394.937 270.806 404.982 260.78 404.982 248.413C404.982 236.045 394.937 226.019 382.547 226.019C370.156 226.019 360.111 236.045 360.111 248.413C360.111 260.78 370.156 270.806 382.547 270.806Z" fill="#2B478B"/>
<path d="M382.547 259.829C388.862 259.829 393.982 254.719 393.982 248.415C393.982 242.111 388.862 237 382.547 237C376.231 237 371.111 242.111 371.111 248.415C371.111 254.719 376.231 259.829 382.547 259.829Z" fill="#85B2EF"/>
<path d="M267.227 216.803C264.059 215.797 260.686 215.254 257.192 215.254C254.723 215.254 252.315 215.526 249.999 216.04C236.711 218.977 226.394 229.886 224.346 243.458C223.953 246.067 225.989 248.413 228.632 248.413H228.778C230.204 248.413 231.38 247.326 231.516 245.909C232.783 232.879 243.814 222.661 257.192 222.661C261.186 222.661 264.974 223.573 268.353 225.196C277.005 229.358 282.991 238.201 282.991 248.411H290.412C290.41 233.62 280.656 221.058 267.227 216.803Z" fill="#699FF0"/>
<path d="M301.654 243.896L290.412 248.415C282.628 233.304 274.678 225.891 267.878 222.234C255.646 215.652 247.132 221.227 249.999 216.042L270.981 171.851C272.949 169.122 275.511 167.051 278.375 165.698C281.491 164.227 284.963 163.608 288.412 163.926C292.417 164.295 295.033 168.328 293.758 172.133C291.011 180.332 289.955 188.574 289.955 196.402C289.953 222.449 301.654 243.896 301.654 243.896Z" fill="#699FF0"/>
<path d="M290.191 169.037L281.723 165.807C280.57 165.807 278.373 166.847 278.373 165.696L279.627 145.055C279.627 143.904 280.57 142.964 281.723 142.964H287.18C288.333 142.964 292.952 145.169 292.625 149.298L294.078 170.106C294.08 171.257 291.344 169.037 290.191 169.037Z" fill="#699FF0"/>
<path d="M434.417 187.246H378.023C376.391 187.246 375.056 185.913 375.056 184.284V182.252C375.056 180.623 376.391 179.29 378.023 179.29H434.417C436.049 179.29 437.384 180.623 437.384 182.252V184.284C437.384 185.913 436.049 187.246 434.417 187.246Z" fill="#699FF0"/>
<path d="M257.194 270.806C269.585 270.806 279.629 260.78 279.629 248.413C279.629 236.045 269.585 226.019 257.194 226.019C244.803 226.019 234.759 236.045 234.759 248.413C234.759 260.78 244.803 270.806 257.194 270.806Z" fill="#2B478B"/>
<path d="M268.63 248.413C268.63 250.335 268.152 252.148 267.311 253.736C267.258 253.839 267.2 253.94 267.14 254.042C265.179 257.498 261.457 259.829 257.194 259.829C250.877 259.829 245.756 254.718 245.756 248.413C245.756 243.662 248.664 239.591 252.799 237.875C252.84 237.854 252.885 237.838 252.929 237.821C254.247 237.291 255.688 236.998 257.194 236.998C263.509 237 268.63 242.109 268.63 248.413Z" fill="#AFCDFB"/>
<path d="M339.366 203.307C339.366 203.307 348.111 222.756 328.571 243.896H373.671L367.553 197.615L339.366 203.307Z" fill="#699FF0"/>
<path d="M427.773 250.999C427.773 251.814 427.438 252.554 426.899 253.093C426.362 253.629 425.62 253.961 424.803 253.961H352.831C351.199 253.961 349.864 252.629 349.864 250.999L350.818 204.013L375.054 202.532C407.34 202.53 427.773 218.773 427.773 250.999Z" fill="#699FF0"/>
<path d="M280.557 151.794C280.557 152.522 280.491 153.233 280.361 153.924C279.359 159.306 274.627 163.379 268.946 163.379V140.208C275.358 140.208 280.557 145.396 280.557 151.794Z" fill="#F99746"/>
<path d="M298.88 153.359C298.835 153.359 298.353 153.264 298.308 153.256L285.535 149.719C285.029 149.62 284.678 148.993 284.752 148.318C284.827 147.644 285.296 147.176 285.804 147.277L298.606 149.772C299.112 149.871 299.517 150.639 299.637 151.303C299.839 152.413 299.335 153.359 298.88 153.359Z" fill="#2B478B"/>
<path d="M268.018 223.127C268.134 223.841 268.245 224.532 268.353 225.198C268.32 225.184 268.289 225.165 268.254 225.151C264.9 223.556 261.147 222.661 257.192 222.661C243.816 222.661 232.783 232.879 231.516 245.909C231.38 247.326 230.202 248.413 228.778 248.413H228.632C225.987 248.413 223.951 246.067 224.346 243.458C226.387 229.932 236.641 219.053 249.864 216.073C249.91 216.061 249.953 216.05 249.999 216.04L270.981 171.848C272.949 169.12 275.511 167.049 278.375 165.696C274.798 171.702 264.931 190.913 267.227 216.803C267.386 218.581 267.601 220.39 267.878 222.232C267.925 222.529 267.968 222.828 268.018 223.127Z" fill="#F99746"/>
<path d="M387.566 194.127V201.107C387.566 202.317 386.574 203.31 385.359 203.31H339.366C338.153 203.31 337.159 202.317 337.159 201.107V194.127C337.159 192.914 338.153 191.924 339.366 191.924H385.359C386.574 191.924 387.566 192.914 387.566 194.127Z" fill="#F99746"/>
<path d="M422.072 253.961H352.833C352.833 253.961 348.609 228.372 364.192 219.732C367.945 217.651 372.659 216.935 377.796 217.436C393.984 219.018 414.372 232.71 422.072 253.961Z" fill="#578DDD"/>
<path d="M280.361 153.924C279.359 159.306 274.627 163.379 268.946 163.379V156.913C272.358 157.049 277.272 156.68 280.361 153.924Z" fill="#ED7D2B"/>
<path d="M373.006 203.307H339.366C338.153 203.307 337.159 202.315 337.159 201.105V194.125C337.159 192.912 338.153 191.922 339.366 191.922H362.411C364.416 194.746 368.181 199.531 373.006 203.307Z" fill="#ED7D2B"/>
<path d="M422.072 253.961H393.315C375.959 245.168 377.019 223.958 377.796 217.436C393.984 219.018 414.372 232.71 422.072 253.961Z" fill="#5C96E3"/>
<path d="M267.14 254.042C265.179 257.498 261.457 259.829 257.194 259.829C250.877 259.829 245.756 254.718 245.756 248.413C245.756 243.662 248.664 239.591 252.799 237.875C253.793 242.817 256.994 251.971 267.14 254.042Z" fill="#85B2EF"/>
<path d="M268.018 223.127C268.134 223.841 268.245 224.532 268.353 225.198C268.32 225.184 268.289 225.165 268.254 225.151C264.11 221.326 255.357 217.94 249.866 216.073C249.912 216.061 249.955 216.05 250.001 216.04L270.983 171.848C272.951 169.12 275.513 167.049 278.377 165.696C274.8 171.702 264.933 190.913 267.229 216.803C267.388 218.581 267.603 220.39 267.88 222.232C267.925 222.529 267.968 222.828 268.018 223.127Z" fill="#ED7D2B"/>
<path d="M379.685 179.288H415.53V149.787H379.685V179.288Z" fill="#D3671E"/>
<path d="M433.454 149.787H397.609V179.288H433.454V149.787Z" fill="#F1A34F"/>
<path d="M379.707 171.807H385.386L384.886 170.211L385.386 169.072H379.707V171.807Z" fill="#F1A34F"/>
<path d="M433.451 169.347V179.288H397.609V149.787H403.957L433.451 169.347Z" fill="#E78B37"/>
<path opacity="0.4" d="M433.454 156.404H427.773L428.273 154.809L427.773 153.669H433.454V156.404Z" fill="#D86713"/>
<path d="M433.454 174.542H427.773L428.273 172.946L427.773 171.807H433.454V174.542Z" fill="#F1A34F"/>
<path d="M343.365 123.053C349.562 125.566 360.89 120.195 360.89 120.195C360.89 120.195 357.129 116.872 356.414 110.579C356.377 110.261 356.35 109.937 356.33 109.607C355.677 109.374 354.445 108.937 353.127 108.471L347.638 112.2C347.638 112.2 347.506 114.036 347.7 117.245C347.733 117.806 347.777 118.408 347.835 119.05C344.987 120.327 343.365 123.053 343.365 123.053Z" fill="#FFB27D"/>
<path d="M347.638 112.2C347.638 112.2 347.506 114.036 347.7 117.245C352.695 116.34 355.443 112.313 356.412 110.579C356.375 110.261 356.348 109.937 356.328 109.607C355.675 109.374 354.443 108.937 353.125 108.471L347.638 112.2Z" fill="#ED975D"/>
<path d="M346.626 114.873C346.626 114.873 357.299 114.527 356.979 107.895C356.66 101.264 357.824 96.755 350.994 96.6952C344.167 96.6354 342.966 99.2302 342.532 101.468C342.1 103.708 343.84 114.793 346.626 114.873Z" fill="#FFB27D"/>
<path d="M356.414 110.579C356.414 110.579 356.832 108.374 355.629 106.918C355.629 106.918 356.404 104.754 355.571 104.269C354.739 103.784 354.305 105.632 353.939 105.284C353.573 104.935 351.959 103.302 351.461 101.142C350.963 98.9847 343.563 100.532 342.691 100.792C341.817 101.051 347.601 90.2805 353.846 92.8319C360.091 95.3834 360.562 98.5845 359.841 101.177C359.117 103.772 359.183 110.046 356.414 110.579Z" fill="#2B478B"/>
<path d="M366.623 173.866C366.623 173.866 365.883 186.879 362.913 190.585C359.946 194.292 303.055 192.854 303.055 192.854C303.055 192.854 302.807 184.511 305.034 182.366C307.26 180.221 317.65 174.058 350.819 170.564L366.623 173.866Z" fill="#6BB7BF"/>
<path d="M367.381 146.629C366.453 157.806 367.674 174.806 366.623 177.752C365.716 180.293 355.369 178.781 351.24 177.935C349.711 177.62 347.859 177.172 345.946 176.642C340.612 175.163 334.799 173.049 334.177 171.479C334.153 171.417 334.132 171.358 334.12 171.3C334.06 171.073 334.072 170.858 334.13 170.644C334.283 170.052 334.762 169.425 335.041 168.336C335.138 167.952 335.209 167.513 335.233 166.997C335.33 164.972 335.324 162.62 335.395 160.088C335.403 159.854 335.409 159.621 335.417 159.386C335.421 159.071 335.428 158.726 335.465 158.413L335.467 158.297C335.467 158.237 335.469 158.18 335.471 158.12C335.56 154.997 335.744 151.715 335.952 148.459C336.019 147.444 336.091 146.433 336.169 145.437C336.194 145.084 336.223 144.733 336.25 144.385C336.304 143.733 336.36 143.085 336.417 142.45C336.882 137.442 337.511 132.989 338.339 130.176C339.695 125.586 342.685 122.593 345.406 120.401L347.376 118.887C349.572 119.316 352.17 119.029 354.519 118.035C357.059 116.952 357.937 116.177 358.38 116.469C364.255 120.525 368.478 132.964 367.381 146.629Z" fill="#F99746"/>
<path d="M323.525 235.664C323.525 235.664 323.023 243.764 321.452 243.879C321.243 243.893 313.49 243.893 313.49 243.893L303.592 243.836C303.592 243.836 303.656 241.455 306.551 240.952C309.444 240.449 314.288 238.419 316.04 234.601C317.881 230.59 323.525 235.664 323.525 235.664Z" fill="#1C4575"/>
<path d="M325.593 236.192C325.593 236.192 323.68 237.66 319.78 237.848C318.776 237.895 317.857 237.844 317.051 237.739C314.902 237.466 313.558 236.848 313.558 236.848L303.057 192.852C303.057 192.852 314.435 182.929 320.371 189.1C321.146 189.905 321.806 191.301 322.37 193.12C326.133 205.248 325.593 236.192 325.593 236.192Z" fill="#6BB7BF"/>
<path d="M350.818 138.133C350.818 138.133 343.452 165.052 335.039 168.334C335.136 167.95 335.206 167.511 335.231 166.995C335.328 164.97 335.322 162.618 335.392 160.085C335.401 159.852 335.407 159.619 335.415 159.384C335.419 159.069 335.425 158.724 335.463 158.411L335.465 158.295C335.465 158.235 335.467 158.178 335.469 158.118C335.558 154.995 335.742 151.713 335.95 148.456C336.016 147.442 336.089 146.431 336.167 145.435C339.875 140.967 344.9 137.758 350.818 138.133Z" fill="#ED7D2B"/>
<path d="M306.634 148.504C306.634 148.504 303.427 148.751 302.602 148.504C301.778 148.256 297.903 145.952 296.5 146.445C295.099 146.938 291.553 150.56 292.46 152.206C292.46 152.206 294.109 152.248 295.634 150.684C297.159 149.121 298.808 150.191 298.643 150.395C298.477 150.602 296.087 151.548 296.5 151.959C296.911 152.371 300.046 152.289 300.788 151.794C301.53 151.301 307.053 151.918 307.053 151.918L306.634 148.504Z" fill="#FFB27D"/>
<path d="M350.818 123.936C350.818 123.936 330.871 140.909 325.62 142.545C320.369 144.181 301.819 147.78 301.819 147.78C301.819 147.78 301.308 152.163 303.048 153.809C303.048 153.809 326.885 152.429 329.852 151.802C332.82 151.175 354.937 139.736 356.741 138.872C358.545 138.009 358.264 122.538 350.818 123.936Z" fill="#F99746"/>
<path d="M325.593 236.192C325.593 236.192 323.68 237.66 319.78 237.848C318.776 237.895 317.857 237.844 317.051 237.739C323.041 230.177 322.37 193.118 322.37 193.118C326.133 205.248 325.593 236.192 325.593 236.192Z" fill="#5AA9AD"/>
<path d="M361.413 101.619V101.72C361.413 101.998 361.285 102.237 361.101 102.339C361.039 102.374 360.973 102.392 360.905 102.392H335.616C335.337 102.392 335.109 102.089 335.109 101.718V101.617C335.109 101.245 335.337 100.942 335.616 100.942L341.263 100.218C341.79 96.031 344.578 92.6133 348.26 91.4355C348.26 91.4355 348.262 91.4355 348.264 91.4355C349.163 91.1468 350.112 90.9941 351.093 90.9941C356.282 90.9941 360.535 95.272 360.977 100.728C360.981 100.792 360.987 100.853 360.992 100.917C361.056 100.965 361.093 100.994 361.097 100.996C361.285 101.099 361.413 101.342 361.413 101.619Z" fill="#F99746"/>
<path d="M352.868 100.73C354.753 90.7755 348.477 91.4149 348.268 91.4397C349.167 91.1509 350.116 90.9983 351.097 90.9983C356.286 90.9983 360.539 95.2761 360.981 100.732H352.868V100.73Z" fill="#ED7D2B"/>
<path d="M385.347 270.806C385.347 270.806 406.106 265.584 411.962 259.27C417.819 252.957 422.879 260.112 419.085 264.111C415.289 268.111 385.347 270.806 385.347 270.806Z" fill="#EDF4FF"/>
<path d="M467.783 256.77H438.688C437.971 256.77 437.384 256.185 437.384 255.469C437.384 254.753 437.971 254.167 438.688 254.167H467.783C468.5 254.167 469.087 254.753 469.087 255.469C469.087 256.185 468.5 256.77 467.783 256.77Z" fill="#EDF4FF"/>
<path d="M453.918 250.964H438.095C437.704 250.964 437.386 250.646 437.386 250.257C437.386 249.867 437.704 249.549 438.095 249.549H453.918C454.308 249.549 454.626 249.867 454.626 250.257C454.626 250.644 454.306 250.964 453.918 250.964Z" fill="#EDF4FF"/>
<path d="M153.698 202.157C144.436 218.816 130.199 236.264 130.199 236.264C130.199 236.264 98.8485 197.856 98.8485 180.577C98.8485 170.79 103.355 162.041 110.437 156.282C111.625 161.942 113.557 168.418 116.653 174.67C115.934 176.401 115.539 178.28 115.539 180.258C115.539 188.341 122.1 194.865 130.199 194.865C131.288 194.865 132.379 194.741 133.393 194.494C138.865 198.225 145.55 200.968 153.698 202.157Z" fill="#ED7D2B"/>
</svg>
